<svg width="100%" viewBox="0 0 268 80" fill="none" xmlns="http://www.w3.org/2000/svg">
<g clip-path="url(#clip0_2841_3558)">
<g clip-path="url(#clip1_2841_3558)">
<path fill-rule="evenodd" clip-rule="evenodd" d="M79.2295 40C79.2295 61.7629 61.6264 79.405 39.9145 79.405C18.2026 79.405 0.593966 61.7629 0.593966 40C0.593966 18.2372 18.1971 0.59507 39.9145 0.59507C61.6319 0.59507 79.2295 18.2372 79.2295 40Z" fill="#110D0C"/>
<path d="M29.7855 72.9626C29.8632 73.1294 29.7606 73.3269 29.6579 73.4325C29.4914 73.5966 29.2168 73.6299 29.067 73.5409C28.9283 73.4631 28.8339 73.3964 28.809 73.2629C28.7868 73.1155 28.8478 72.9849 28.9283 72.8764C29.1141 72.704 29.3 72.6317 29.5996 72.7457C29.6967 72.793 29.7522 72.882 29.7855 72.9626Z" fill="#CBCED0"/>
<path d="M54.1798 68.5666C54.4656 68.5945 54.8179 68.7307 54.9678 68.8169C54.9955 68.8447 55.0205 68.8947 54.9844 68.9253C54.7458 69.1227 54.51 69.3202 54.3158 69.5398C54.4157 69.5954 54.571 69.601 54.682 69.5982C55.37 69.6288 56.0442 69.6371 56.7322 69.6872C56.8099 69.7205 56.9153 69.7344 56.9514 69.8262C56.9181 69.9847 56.8099 69.9847 56.6268 69.993C55.8306 70.0208 55.0871 70.2071 54.2686 70.2182C54.0328 70.1793 54.1271 69.8818 54.0938 69.7205L54.0328 69.7456C53.1866 70.4268 52.285 71.0524 51.5276 71.8031L51.5193 71.8587C51.7107 71.8949 51.8855 71.7642 52.0658 71.703C52.6623 71.4111 53.2421 71.0719 53.8913 70.9634C54.0328 70.9634 54.2187 70.9495 54.3241 71.0524C54.4268 71.133 54.4739 71.2554 54.4906 71.3749C54.4906 71.6307 54.2714 71.7698 54.1216 71.9421C53.8858 72.1284 53.6056 72.2814 53.4169 72.5094C53.3781 72.615 53.5085 72.6512 53.564 72.7068C53.7637 72.8375 54.0827 72.8124 54.1493 73.1099C54.2048 73.6994 53.6555 73.908 53.1395 74.2249C52.31 74.7365 51.4111 75.0035 50.4068 74.9006C50.3069 74.8811 50.2237 74.8311 50.2181 74.7504C50.1959 74.3584 50.4428 74.0442 50.7341 73.7856C51.1919 73.4102 51.7273 73.2907 52.285 73.2518C52.3987 73.2518 52.543 73.2823 52.6013 73.388C52.6151 73.477 52.5596 73.527 52.4736 73.527C51.9826 73.5632 51.4582 73.8134 51.1642 74.2305C51.1614 74.2611 51.1531 74.2972 51.1808 74.3139C51.4055 74.3639 51.6913 74.1804 51.9326 74.0748C52.3932 73.8162 52.8926 73.5798 53.2754 73.1767C53.3254 73.135 53.3254 73.0988 53.317 73.0432C53.0923 72.7346 52.3682 72.8097 52.5264 72.2424C52.6124 72.0728 52.8038 71.9588 52.9397 71.8115C52.8399 71.8031 52.715 71.8504 52.6151 71.8949C51.9465 72.1868 51.2779 72.4788 50.551 72.54C50.3901 72.5149 50.2153 72.4843 50.1626 72.3147C50.1182 72.1145 50.2542 71.9366 50.3346 71.767C50.1404 71.7698 49.9545 71.9227 49.7548 71.9894C49.1555 72.273 48.5313 72.4955 47.8683 72.5733C47.6186 72.5817 47.2912 72.6178 47.1636 72.337C47.0942 72.2007 47.158 71.9783 47.2385 71.8476C47.1358 71.8865 47.0692 71.9255 47.0027 71.9533C46.1981 72.3398 45.4185 72.6345 44.5113 72.754C44.2283 72.7874 43.9065 72.7568 43.79 72.4677C43.7512 72.2397 43.8899 72.0895 44.0064 71.9338C44.3698 71.5807 44.8831 71.1636 45.241 70.7966L45.0717 70.8605C44.5446 71.0496 43.9925 71.1692 43.396 71.1191C43.2462 71.3582 43.0909 71.5946 42.8772 71.8003C42.2974 72.4343 41.5456 72.9153 40.7105 72.7679C40.4331 72.6845 40.1723 72.4009 40.1889 72.0422C40.0668 72.1006 40.053 72.0923 39.881 72.1729C39.5064 72.3509 39.143 72.54 38.7574 72.6762C38.1748 72.882 37.5505 73.1683 36.8902 72.9542C36.7321 72.8625 36.7515 72.6873 36.7987 72.5427C37.0012 72.0867 37.3952 71.7308 37.7808 71.3721L37.717 71.3833C36.6211 71.9255 35.5863 72.6206 34.4738 73.0849C34.2852 73.1517 34.2741 73.1489 34.1853 73.1016C34.1131 73.0627 34.0909 72.9987 34.1242 72.8792C34.3351 72.3898 34.8095 72.084 35.1868 71.6863C35.6196 71.2498 36.1107 70.8578 36.5767 70.424C36.3853 70.424 36.2716 70.538 36.0829 70.6325C35.6501 70.8744 35.4004 70.9996 35.0259 71.1998C33.7469 71.8921 32.4707 72.5594 31.1862 73.21C31.103 73.2267 31.0059 73.2629 30.9116 73.2045C30.8256 73.1572 30.8422 73.0682 30.9032 72.9959C31.2112 72.7457 31.5635 72.5789 31.8992 72.3954C34.8206 70.8021 37.7558 69.1227 40.6078 67.257C40.827 67.0457 41.0712 67.2543 41.3153 67.3154C41.393 67.3349 41.5289 67.3877 41.4485 67.4962C40.0308 68.714 38.5132 69.8123 37.2176 71.083C37.2731 71.1191 37.3203 71.083 37.3924 71.0329C39.1208 69.9819 40.827 68.7807 42.4999 67.6046C42.6386 67.5073 42.7136 67.4127 42.8856 67.4183C43.1075 67.46 43.2545 67.5546 43.4654 67.6102C43.6984 67.6797 43.5708 67.7714 43.5708 67.7714C41.9673 69.0727 40.2943 70.4045 38.7102 71.7725C38.4994 71.9533 38.3634 72.1034 38.4661 72.1868C38.541 72.2841 39.2706 71.9727 39.6618 71.8281C39.9753 71.6891 40.3415 71.589 40.5246 71.2637C40.9019 70.8272 41.4429 70.4852 41.995 70.4129C42.192 70.4713 42.3446 70.602 42.5221 70.6993C42.5748 70.7354 42.5832 70.8049 42.5471 70.8494C42.1088 71.1358 41.5123 71.3499 41.2737 71.8476C41.2321 71.9338 41.2404 72.0339 41.282 72.1173C41.3375 72.2146 41.4762 72.2091 41.5733 72.2063C42.0061 72.0673 42.3501 71.6919 42.6303 71.3555C42.7274 71.2248 42.8301 71.0913 42.8578 70.9162C42.6386 70.7465 42.6608 70.488 42.6858 70.2933C42.7358 70.1515 42.8384 70.0653 43.0271 70.0375C43.2296 70.0097 43.421 70.1571 43.507 70.3295C43.557 70.4379 43.5736 70.6603 43.5653 70.6715C44.0813 70.7771 44.6944 70.6242 45.1383 70.4379C45.0967 70.3156 45.0884 70.0931 45.2437 69.9791C45.3908 69.854 45.6044 69.8373 45.7764 69.9207C45.8846 69.9569 45.9567 70.0681 45.99 70.1821C46.0095 70.2961 45.9789 70.424 45.9096 70.5158C45.8874 70.563 45.7875 70.5714 45.9928 70.6492C46.1509 70.7104 46.4339 70.7882 46.4533 70.8578C46.4728 70.9273 46.384 70.9884 46.384 70.9884C46.0261 71.3555 45.5572 71.7002 45.2077 72.0701C45.1744 72.0951 45.1938 72.1618 45.2271 72.1674C45.5822 72.2091 45.843 72.045 46.1787 71.8921C47.0748 71.4778 47.9487 70.9106 48.7671 70.2989C48.9752 70.2349 49.1444 70.3517 49.322 70.4184C49.4302 70.4574 49.5273 70.5158 49.58 70.5547C49.6355 70.5992 49.5523 70.6659 49.5523 70.6659C49.1056 71.1136 48.6145 71.5084 48.1984 71.9727C48.1762 72.0172 48.179 72.0673 48.2428 72.0756C48.8337 72.0005 49.3581 71.678 49.9018 71.4417C51.3584 70.766 52.715 69.7706 53.9773 68.7112C54.055 68.6473 54.0911 68.5889 54.1826 68.5778L54.1798 68.5666Z" fill="#CBCED0"/>
<path d="M50.7511 69.3506C50.8066 69.5063 50.765 69.662 50.6373 69.751C50.4043 69.8928 50.0852 69.9151 49.8661 69.7427C49.7773 69.6315 49.7385 69.4924 49.7995 69.3617C49.8772 69.1782 50.0963 69.0837 50.2739 69.0587C50.5208 69.0642 50.6845 69.1393 50.7511 69.3534V69.3506Z" fill="#CBCED0"/>
<path d="M33.6333 70.4824C33.5834 70.385 33.4668 70.36 33.3642 70.3378C32.7122 70.3044 32.063 70.2738 31.436 70.2905C31.2779 70.2933 31.1198 70.3433 31.1225 70.2683C31.3084 70.0736 31.5359 69.929 31.719 69.7455C31.7495 69.7177 31.7384 69.6705 31.7162 69.6454C31.7162 69.6454 31.0199 69.2895 30.9145 69.423C30.5399 69.6899 28.5591 71.3832 27.2551 72.0561C27.1275 72.1228 26.9916 72.2118 26.7613 72.3119L26.8556 72.2202C27.6324 71.4416 28.3898 70.6909 29.1916 70.0097C30.2791 69.537 31.3223 68.8864 32.3238 68.1384C32.5791 67.9466 33.1089 67.5156 33.0535 67.0874C32.9758 66.9261 32.8121 66.8761 32.6345 66.8733C32.113 66.9345 31.6191 67.1235 31.1669 67.3766C30.7702 67.5962 30.7369 67.624 30.3513 67.8826C29.3359 68.5305 28.4897 69.3924 27.6241 70.1987C26.1426 70.8383 24.6278 71.3304 23.1075 71.8309C23.0187 71.8559 22.9743 71.9532 23.0021 72.0394C23.0326 72.1256 23.1214 72.1479 23.2268 72.1228C24.1728 71.8948 25.0967 71.5667 26.0233 71.247C26.3174 71.1469 26.5532 71.0857 26.8417 70.9856C26.5033 71.411 25.9456 72.0895 25.499 72.4871C25.499 72.3369 25.4518 72.1173 25.327 71.9949C25.2299 71.9171 25.1022 71.8615 24.9663 71.8809C24.847 71.8976 24.761 71.9866 24.6833 72.0839C24.478 72.3647 24.3754 72.8152 24.5696 73.1349C24.6916 73.324 24.8609 73.4325 25.1771 73.3741C25.7514 73.2489 26.3285 72.9653 26.9 72.6817C27.0165 72.6261 27.0692 72.5955 27.2274 72.4871C27.1081 72.6345 27.158 72.9264 27.1885 73.0849C27.2856 73.3546 27.5492 73.4992 27.7878 73.6132C27.7878 73.6132 28.3343 73.7883 28.5119 73.5854C28.6145 73.324 28.2372 73.4603 28.1568 73.2823C27.9626 72.9431 28.1457 72.7818 28.4675 72.4315C29.0057 71.842 29.6355 71.3832 30.2764 70.8855L30.3429 70.8327C30.3513 70.8994 30.379 70.9828 30.404 71.0106C30.4817 71.0996 30.6148 71.0635 30.7286 71.0496C31.6718 70.9384 32.5929 70.7048 33.5528 70.6325C33.6139 70.5964 33.6444 70.5463 33.6361 70.4768L33.6333 70.4824ZM30.8229 68.447C31.1947 68.1384 31.5914 67.8882 32.0186 67.6602C32.149 67.5934 32.3072 67.4989 32.4764 67.51C32.3848 67.6769 32.2295 67.7714 32.0713 67.9021C31.4776 68.3136 30.9339 68.7696 30.1432 69.0337C30.3318 68.8363 30.6037 68.6278 30.8229 68.447Z" fill="#CBCED0"/>
<path d="M61.5207 65.3219L63.4044 66.5287L62.5333 64.3932L64.1618 62.8974L62.0395 63.0809L61.1517 61.0177L60.6301 63.2032L58.5077 63.3867L60.3665 64.5795L59.8727 66.8345L61.5207 65.3219Z" fill="#CBCED0"/>
<path d="M67.6657 58.3539L69.8075 58.9934L68.3843 57.1805L69.5384 55.2953L67.5464 56.0572L66.1288 54.3194L66.2259 56.5632L64.2367 57.3251L66.3535 57.959L66.4977 60.2613L67.6657 58.3539Z" fill="#CBCED0"/>
<path d="M71.6557 49.9679L73.8891 49.9902L72.0219 48.6416L72.6129 46.509L70.9094 47.7908L69.0673 46.5146L69.7775 48.6416L68.0741 49.9262L70.2824 49.9512L71.0565 52.1256L71.6557 49.9679Z" fill="#CBCED0"/>
<path d="M18.2024 65.3357L16.3186 66.5425L17.1897 64.4071L15.5612 62.9112L17.6836 63.0919L18.5686 61.0316L19.0929 63.2142L21.2153 63.395L19.3565 64.5906L19.8531 66.8455L18.2024 65.3357Z" fill="#CBCED0"/>
<path d="M12.0548 58.3706L9.91302 59.0102L11.3363 57.1973L10.1821 55.3093L12.1713 56.0712L13.5918 54.3334L13.4919 56.5772L15.4839 57.3391L13.3671 57.9758L13.2256 60.2781L12.0548 58.3706Z" fill="#CBCED0"/>
<path d="M8.05912 49.9847L5.82579 50.0097L7.69291 48.6612L7.10198 46.5258L8.80542 47.8104L10.6476 46.5313L9.93734 48.6584L11.6408 49.943L9.43242 49.968L8.66115 52.1423L8.05912 49.9847Z" fill="#CBCED0"/>
<path d="M9.74038 40.4562C9.70432 40.4868 9.64328 40.5007 9.59612 40.4562L8.89976 39.7666C8.86092 39.7305 8.86369 39.6804 8.89976 39.6387C9.22713 39.2745 9.54618 38.7768 9.58225 38.1651C9.61831 37.5645 9.3603 37.2086 8.95247 37.1835C8.614 37.1641 8.38928 37.3532 8.25612 38.0344L8.19508 38.3374C7.96481 39.4969 7.37388 40.117 6.36125 40.0558C5.30423 39.9918 4.64949 39.1521 4.7244 37.9065C4.77156 37.1446 5.04067 36.4467 5.44295 35.9852C5.47901 35.9351 5.51508 35.9295 5.57057 35.9768L6.30854 36.5413C6.35015 36.5774 6.3557 36.6191 6.32796 36.6608C6.01446 37.0835 5.8369 37.4977 5.80639 37.9732C5.77587 38.482 6.02278 38.7601 6.38622 38.7823C6.71636 38.8018 6.94108 38.5766 7.07425 37.9232L7.13529 37.6201C7.36833 36.4439 7.94539 35.8489 8.98576 35.9129C10.0261 35.9768 10.7502 36.7943 10.6587 38.2846C10.606 39.1827 10.1981 40.0335 9.73761 40.4562H9.74038Z" fill="#CBCED0"/>
<path d="M8.06219 34.3946C7.1966 34.1861 6.91639 34.0832 6.58624 33.8691C5.74285 33.3519 5.45709 32.5206 5.69291 31.5391C5.92318 30.5909 6.55018 30.0098 7.40744 29.8847C7.45461 29.8708 7.49067 29.8958 7.49622 29.9486L7.6821 30.9468C7.69597 31.0024 7.66823 31.0386 7.61274 31.0525C7.21324 31.122 6.87755 31.3194 6.7638 31.7893C6.65838 32.2258 6.82206 32.5623 7.17718 32.7819C7.36583 32.8987 7.55726 32.971 8.35626 33.1629C9.15527 33.3547 9.3578 33.3797 9.57974 33.3631C9.99589 33.3325 10.2955 33.1073 10.4009 32.6707C10.5147 32.2008 10.3066 31.8699 9.98202 31.6253C9.93763 31.5891 9.93208 31.5446 9.96815 31.5001L10.5896 30.6994C10.6173 30.6549 10.6645 30.6465 10.6978 30.6827C11.4052 31.1859 11.6993 31.9923 11.4691 32.9404C11.2305 33.9219 10.5979 34.5281 9.61303 34.6032C9.22185 34.6393 8.925 34.6032 8.05941 34.3918L8.06219 34.3946Z" fill="#CBCED0"/>
<path d="M7.01917 27.6186C6.972 27.5963 6.95536 27.5519 6.97755 27.5074L7.41867 26.5231C7.43809 26.4758 7.48525 26.4591 7.52964 26.4814L9.49942 27.3683C9.52993 27.3822 9.55213 27.3739 9.566 27.3433L10.3373 25.625C10.3511 25.5944 10.3428 25.5722 10.3123 25.5582L8.34252 24.6713C8.29536 24.6518 8.27871 24.6045 8.30091 24.5601L8.74202 23.5758C8.76144 23.5285 8.80861 23.5118 8.853 23.5341L13.9522 25.8335C13.9994 25.853 14.016 25.9002 13.9938 25.9447L13.5527 26.929C13.5305 26.9763 13.4861 26.993 13.4417 26.9707L11.4165 26.0587C11.386 26.0448 11.3638 26.0532 11.3499 26.0838L10.5786 27.8021C10.5648 27.8327 10.5731 27.8549 10.6036 27.8688L12.6289 28.7808C12.676 28.8031 12.6927 28.8476 12.6705 28.892L12.2294 29.8763C12.2099 29.9236 12.1628 29.9403 12.1184 29.918L7.01917 27.6186Z" fill="#CBCED0"/>
<path d="M17.1701 21.2986C17.134 21.3459 17.0869 21.3515 17.0369 21.3348L13.5773 19.964L13.5663 19.9779L15.8135 22.953C15.844 22.9975 15.8495 23.0448 15.8135 23.092L15.303 23.7677C15.2725 23.8094 15.2253 23.815 15.1754 23.7983L9.81813 21.6073C9.77375 21.5822 9.7571 21.5489 9.79039 21.5016L10.4507 20.6285C10.4867 20.5813 10.5339 20.5757 10.5811 20.598L13.9658 22.1244L13.9769 22.1105L11.6853 19.1354C11.6547 19.0909 11.6492 19.0437 11.6853 18.9964L12.1291 18.4069C12.1597 18.3652 12.2068 18.3597 12.2595 18.3763L15.758 19.7527L15.7691 19.7388L13.3665 16.9138C13.3249 16.8721 13.3249 16.8276 13.361 16.7804L14.0157 15.9128C14.0518 15.8656 14.0878 15.8711 14.1239 15.9101L17.6861 20.4784C17.7222 20.5145 17.7222 20.5701 17.6861 20.6174L17.1757 21.2931L17.1701 21.2986Z" fill="#CBCED0"/>
<path d="M15.6828 14.5198C15.6495 14.4809 15.6523 14.4336 15.6912 14.4002L18.496 11.9924C18.5348 11.959 18.582 11.9618 18.6153 12.0007L19.2062 12.6903C19.2395 12.7292 19.2367 12.7764 19.1979 12.8098L17.3114 14.4281C17.2864 14.4503 17.2836 14.4753 17.3058 14.5003L18.0493 15.3706C18.0715 15.3957 18.0965 15.3984 18.1215 15.3762L19.6917 14.0277C19.7306 13.9943 19.7777 13.9971 19.811 14.036L20.3964 14.72C20.4297 14.7589 20.4269 14.8062 20.3881 14.8396L18.8178 16.1881C18.7929 16.2103 18.7901 16.2354 18.8123 16.2604L19.5891 17.1696C19.6113 17.1946 19.6363 17.1974 19.6612 17.1752L21.5478 15.5569C21.5866 15.5236 21.6338 15.5263 21.6671 15.5653L22.258 16.2548C22.2913 16.2938 22.2885 16.341 22.2497 16.3744L19.4448 18.7823C19.406 18.8157 19.3588 18.8129 19.3255 18.7739L15.6884 14.517L15.6828 14.5198Z" fill="#CBCED0"/>
<path d="M20.2721 10.8746C20.2444 10.8329 20.2555 10.7856 20.2971 10.7578L21.1988 10.1711C21.2404 10.1433 21.2875 10.1544 21.3153 10.1961L24.3587 14.8979C24.3865 14.9396 24.3754 14.9869 24.3337 15.0147L23.4321 15.6014C23.3905 15.6292 23.3433 15.6181 23.3156 15.5764L20.2721 10.8746Z" fill="#CBCED0"/>
<path d="M25.4792 14.2446C25.432 14.2668 25.3876 14.2502 25.3654 14.2029L24.9715 13.3548C24.9576 13.3243 24.9548 13.2965 24.9576 13.2659L25.7205 9.00617L25.7122 8.98949L23.5982 9.97378C23.551 9.99602 23.5066 9.97934 23.4844 9.93207L23.0877 9.07847C23.0655 9.0312 23.0822 8.98671 23.1293 8.96447L26.4724 7.4074C26.5195 7.38515 26.5639 7.40184 26.5861 7.4491L26.9801 8.29715C26.994 8.32774 26.9967 8.35554 26.994 8.38613L26.2227 12.6486L26.231 12.6653L28.4366 11.6393C28.4838 11.617 28.5282 11.6337 28.5476 11.681L28.9443 12.5346C28.9665 12.5819 28.9499 12.6264 28.9027 12.6486L25.4764 14.2446H25.4792Z" fill="#CBCED0"/>
<path d="M28.517 6.70949C28.5031 6.65944 28.5253 6.61774 28.5752 6.60384L32.1264 5.58618C32.1763 5.57228 32.2179 5.59452 32.2318 5.64457L32.4815 6.51764C32.4953 6.56769 32.4732 6.6094 32.4232 6.6233L30.0373 7.3073C30.004 7.31564 29.9929 7.33788 30.0012 7.37125L30.3147 8.47232C30.323 8.50568 30.3452 8.51681 30.3785 8.50847L32.365 7.93847C32.4149 7.92456 32.4565 7.94681 32.4704 7.99686L32.7173 8.86159C32.7312 8.91163 32.709 8.95334 32.659 8.96724L30.6726 9.53724C30.6393 9.54558 30.6282 9.56783 30.6365 9.60119L30.9667 10.7523C30.975 10.7857 30.9972 10.7968 31.0305 10.7885L33.4164 10.1045C33.4664 10.0906 33.508 10.1128 33.5218 10.1629L33.7715 11.0359C33.7854 11.086 33.7632 11.1277 33.7133 11.1416L30.1621 12.1592C30.1122 12.1731 30.0706 12.1509 30.0567 12.1008L28.517 6.71227V6.70949Z" fill="#CBCED0"/>
<path d="M38.1217 10.5715C38.0468 10.5798 38.0191 10.5548 37.9858 10.4992L36.7928 8.49169L36.0271 8.56676C35.9938 8.56954 35.9772 8.589 35.9827 8.62237L36.1853 10.6744C36.1908 10.7244 36.1603 10.7633 36.1104 10.7661L35.0395 10.8718C34.9895 10.8773 34.9507 10.8468 34.9479 10.7967L34.4014 5.22184C34.3958 5.17179 34.4263 5.13286 34.4763 5.13008L36.7595 4.90486C37.9303 4.78808 38.7793 5.44706 38.8819 6.4953C38.954 7.22935 38.6239 7.85217 38.0191 8.19139L39.3702 10.3435C39.4007 10.3908 39.3813 10.4436 39.3202 10.4519L38.1245 10.5687L38.1217 10.5715ZM37.6418 6.62042C37.6002 6.18945 37.27 5.94198 36.7984 5.98647L35.7858 6.08657C35.7525 6.08935 35.7358 6.10881 35.7414 6.14218L35.8718 7.46847C35.8745 7.50183 35.894 7.51852 35.9272 7.51296L36.9399 7.41286C37.4115 7.36559 37.6889 7.05696 37.6446 6.61764L37.6418 6.62042Z" fill="#CBCED0"/>
<path d="M42.7134 9.89299C42.6857 9.85406 42.6801 9.79289 42.7301 9.7484L43.4874 9.12836C43.5291 9.09221 43.579 9.10055 43.6151 9.14226C43.9397 9.5065 44.4002 9.87909 45.0022 9.98197C45.5959 10.0821 45.976 9.86518 46.0454 9.46201C46.1036 9.12836 45.9372 8.88368 45.2769 8.67514L44.9828 8.58338C43.8564 8.22748 43.3071 7.57407 43.4763 6.57031C43.6539 5.52485 44.5583 4.9632 45.7846 5.17173C46.5364 5.29963 47.1995 5.64441 47.6129 6.09485C47.6573 6.13656 47.66 6.17271 47.6073 6.22275L46.9692 6.89841C46.9276 6.93456 46.886 6.93456 46.8472 6.90397C46.4615 6.54529 46.0703 6.32285 45.6015 6.24222C45.0993 6.15602 44.7969 6.3729 44.7359 6.73158C44.6804 7.0569 44.8774 7.30714 45.5155 7.51012L45.8096 7.60187C46.9526 7.96056 47.4797 8.60285 47.3049 9.63162C47.1301 10.6604 46.2396 11.2944 44.7692 11.0441C43.8842 10.894 43.0824 10.3963 42.7134 9.89299Z" fill="#CBCED0"/>
<path d="M50.0346 6.28406C50.0513 6.2368 50.0957 6.21733 50.1428 6.23402L51.1527 6.60938C51.1999 6.62606 51.2193 6.67055 51.2026 6.71782L50.3398 9.05899L53.0032 7.37679C53.0642 7.33509 53.1003 7.33231 53.1641 7.35455L54.3154 7.78274C54.3626 7.79943 54.3654 7.86616 54.3099 7.89952L51.9156 9.34537L52.5371 13.1685C52.5482 13.2353 52.5093 13.2659 52.4539 13.2464L51.2859 12.8126C51.2221 12.7876 51.2054 12.7654 51.1943 12.6959L50.8115 9.96542L49.7766 10.5938L49.2689 11.9701C49.2523 12.0174 49.2079 12.0369 49.1607 12.0202L48.1509 11.6448C48.1037 11.6281 48.0843 11.5837 48.1009 11.5364L50.0402 6.28128L50.0346 6.28406Z" fill="#CBCED0"/>
<path d="M56.1022 8.81971C56.1272 8.77522 56.1716 8.76132 56.216 8.78634L57.162 9.30073C57.2064 9.32576 57.2203 9.37025 57.1953 9.41473L54.5292 14.3417C54.5042 14.3862 54.4598 14.4001 54.4154 14.3751L53.4694 13.8607C53.425 13.8357 53.4111 13.7912 53.4361 13.7467L56.1022 8.81971Z" fill="#CBCED0"/>
<path d="M55.9273 14.3724C55.919 14.3251 55.9412 14.2667 56.005 14.2501L56.9594 14.036C57.0121 14.0221 57.0537 14.0526 57.0676 14.1055C57.1952 14.5782 57.4393 15.1176 57.9332 15.479C58.4187 15.8349 58.857 15.8099 59.0984 15.4818C59.2981 15.2093 59.2593 14.9174 58.7627 14.4336L58.5407 14.2195C57.6946 13.3965 57.492 12.5651 58.0941 11.7421C58.7211 10.8857 59.7781 10.7911 60.7824 11.528C61.3983 11.9812 61.8366 12.5873 62.0031 13.174C62.0225 13.2324 62.0114 13.263 61.9421 13.288L61.0681 13.605C61.0154 13.6189 60.9766 13.5994 60.9572 13.5549C60.7713 13.06 60.5216 12.6874 60.1387 12.4066C59.7281 12.1063 59.3619 12.1619 59.1455 12.4567C58.9513 12.7236 59.0151 13.035 59.4923 13.5021L59.7143 13.7162C60.5743 14.5504 60.7602 15.3595 60.1443 16.202C59.5284 17.0444 58.4492 17.2085 57.2479 16.3243C56.5238 15.7932 56.03 14.9869 55.9245 14.3724H55.9273Z" fill="#CBCED0"/>
<path d="M61.917 16.2465C62.5634 15.632 62.7993 15.4541 63.1571 15.2873C64.0477 14.8591 64.8994 15.0676 65.593 15.8016C66.2644 16.5107 66.4087 17.3532 66.048 18.1428C66.0341 18.1901 65.9925 18.2068 65.9453 18.1817L65.0076 17.798C64.9549 17.7786 64.9383 17.7369 64.9577 17.6813C65.1186 17.3059 65.1325 16.9166 64.8023 16.5663C64.4944 16.241 64.1226 16.1937 63.7481 16.3772C63.5483 16.4745 63.3819 16.5969 62.7882 17.1613C62.1917 17.7285 62.0613 17.887 61.9559 18.0816C61.7533 18.4487 61.7811 18.8212 62.089 19.1466C62.422 19.4969 62.8104 19.5025 63.1904 19.3607C63.2459 19.344 63.2875 19.3607 63.3014 19.4191L63.6371 20.3755C63.6593 20.4228 63.6399 20.4645 63.5927 20.4756C62.7882 20.7954 61.9531 20.6063 61.2817 19.9001C60.5881 19.166 60.4244 18.3041 60.8961 17.4338C61.0792 17.0834 61.2706 16.8554 61.917 16.241V16.2465Z" fill="#CBCED0"/>
<path d="M68.1653 19.0574C68.2069 19.0296 68.2541 19.0407 68.2818 19.0824L68.8645 19.9889C68.8922 20.0306 68.8811 20.0778 68.8395 20.1057L67.0223 21.279C66.9946 21.2985 66.989 21.3207 67.0084 21.3485L68.0266 22.9334C68.046 22.9612 68.0682 22.9668 68.096 22.9501L69.9131 21.7795C69.9548 21.7517 70.0019 21.7628 70.0297 21.8045L70.6123 22.711C70.64 22.7527 70.6289 22.7999 70.5873 22.8277L65.8848 25.8613C65.8432 25.8891 65.796 25.8779 65.7683 25.8362L65.1857 24.9298C65.158 24.8881 65.1691 24.8408 65.2107 24.813L67.0778 23.6091C67.1055 23.5896 67.1111 23.5674 67.0917 23.5395L66.0735 21.9547C66.0541 21.9269 66.0319 21.9213 66.0041 21.9408L64.137 23.1447C64.0954 23.1725 64.0482 23.1614 64.0205 23.1197L63.4379 22.2133C63.4101 22.1716 63.4212 22.1243 63.4628 22.0965L68.1653 19.063V19.0574Z" fill="#CBCED0"/>
<path d="M68.3811 26.2951L71.6881 24.9744C71.7352 24.9549 71.7796 24.9744 71.799 25.0216L72.1985 26.0226C72.218 26.0699 72.1985 26.1144 72.1514 26.1338L68.8139 27.4657C68.1758 27.7215 67.9566 28.2192 68.173 28.7641C68.3866 29.3008 68.8888 29.5121 69.5269 29.2563L72.8644 27.9244C72.9115 27.905 72.9559 27.9244 72.9753 27.9717L73.3749 28.9727C73.3943 29.02 73.3748 29.0644 73.3277 29.0839L70.0207 30.4046C68.6918 30.9357 67.6264 30.374 67.152 29.1729C66.6721 27.9662 67.0577 26.8262 68.3894 26.2951H68.3811Z" fill="#CBCED0"/>
<path d="M73.9574 31.3694C74.0073 31.3583 74.0462 31.3861 74.0573 31.4361L74.2681 32.4927C74.2792 32.5428 74.2515 32.5817 74.2015 32.5928L69.7737 33.4826C69.7404 33.4881 69.7265 33.5104 69.7349 33.5437L70.2342 36.0406C70.2453 36.0907 70.2176 36.1296 70.1677 36.1407L69.2466 36.327C69.1967 36.3381 69.1578 36.3103 69.1467 36.2603L68.4087 32.5734C68.3976 32.5233 68.4254 32.4844 68.4753 32.4733L73.9574 31.3722V31.3694Z" fill="#CBCED0"/>
<path d="M74.9232 37.203C74.9731 37.203 75.0092 37.2336 75.0092 37.2864L75.1063 40.9872C75.1063 41.0373 75.0758 41.0734 75.0231 41.0734L74.1159 41.0984C74.0659 41.0984 74.0299 41.0679 74.0299 41.015L73.9633 38.5293C73.9633 38.4959 73.9439 38.4792 73.9106 38.4792L72.7676 38.5098C72.7343 38.5098 72.7176 38.5293 72.7176 38.5626L72.7731 40.6341C72.7731 40.6841 72.7426 40.7203 72.6899 40.7203L71.791 40.7453C71.741 40.7453 71.705 40.7147 71.705 40.6619L71.6495 38.5904C71.6495 38.5571 71.6301 38.5404 71.5968 38.5404L70.4038 38.5738C70.3705 38.5738 70.3539 38.5932 70.3539 38.6266L70.4205 41.1123C70.4205 41.1624 70.39 41.1985 70.3372 41.1985L69.43 41.2236C69.3801 41.2236 69.344 41.193 69.344 41.1401L69.2442 37.4393C69.2442 37.3893 69.2747 37.3531 69.3274 37.3531L74.9177 37.203H74.9232Z" fill="#CBCED0"/>
<path fill-rule="evenodd" clip-rule="evenodd" d="M64.8859 40C64.8859 53.8217 53.7026 65.0298 39.9142 65.0298C26.1257 65.0298 14.9341 53.8217 14.9341 40C14.9341 26.1782 26.1146 14.9701 39.9142 14.9701C53.7137 14.9701 64.8859 26.1754 64.8859 40Z" fill="#D20A11"/>
<path fill-rule="evenodd" clip-rule="evenodd" d="M78.5051 40C78.5051 61.3291 61.1933 78.6793 39.9142 78.6793C18.6352 78.6793 1.31781 61.3263 1.31781 40C1.31781 18.6737 18.6324 1.32073 39.9142 1.32073C61.1961 1.32073 78.5051 18.6709 78.5051 39.9972V40ZM39.9142 0C17.9055 0 0 17.9424 0 40C0 62.0576 17.9055 80 39.9142 80C61.923 80 79.8229 62.0548 79.8229 40C79.8229 17.9452 61.9202 0 39.9142 0Z" fill="#CBCED0"/>
<path fill-rule="evenodd" clip-rule="evenodd" d="M64.5086 40C64.5086 53.5938 53.4751 64.6518 39.9142 64.6518C26.3533 64.6518 15.3114 53.5938 15.3114 40C15.3114 26.4062 26.3477 15.3483 39.9142 15.3483C53.4806 15.3483 64.5086 26.4062 64.5086 40ZM39.9142 14.592C25.9316 14.592 14.5568 25.9892 14.5568 40C14.5568 54.0108 25.9316 65.408 39.9142 65.408C53.8968 65.408 65.2632 54.0108 65.2632 40C65.2632 25.9892 53.8912 14.592 39.9142 14.592Z" fill="#CBCED0"/>
<path fill-rule="evenodd" clip-rule="evenodd" d="M57.6696 34.0665H45.8315V22.2021H33.9907V34.0665H22.1526V45.9336H33.9907V57.7979H45.8315V45.9336H57.6696V34.0665Z" fill="white"/>
<path fill-rule="evenodd" clip-rule="evenodd" d="M23.8285 27.2598C23.8285 27.2598 22.4829 28.194 23.379 30.8077C24.3112 33.0988 26.5279 34.2805 27.9733 36.0572C29.1912 35.8153 29.7655 35.6263 30.0624 34.0636C27.2575 33.7022 30.4119 30.082 30.9612 32.9375C31.3136 32.9959 31.5882 33.1349 31.8601 33.274C31.8934 34.3723 34.5068 34.7282 33.9936 36.4243C33.5358 37.9313 31.555 36.2713 30.5146 36.4243C30.2593 36.4604 29.5214 36.8691 29.3466 36.9442C28.6058 37.2723 28.4033 37.1805 28.1398 37.9007C27.7403 38.9962 28.8777 39.9916 29.3466 40.5727C29.6545 40.9537 29.7294 41.4069 30.2899 42.2716C31.2526 43.7564 32.7146 44.1874 34.2183 44.635C34.2904 43.7202 33.6912 43.4617 33.9936 42.6108C33.0337 42.5218 33.0503 41.4569 32.5343 40.9231C31.8019 40.6061 30.8919 40.4699 30.7393 39.5718C30.9391 39.4717 30.9252 39.1575 31.1887 39.1213C33.4359 39.8303 34.7288 41.3791 37.5447 41.532C37.9415 41.8406 38.6572 42.077 39.1538 42.2716C41.0681 43.014 44.3085 43.1308 45.6652 44.1846C46.5807 44.8936 46.5391 46.1949 47.3492 47.1096C48.0816 47.8548 49.2524 47.8492 49.9293 48.9086C50.5341 49.8568 50.1152 51.4249 50.2678 53.071C50.4592 55.1341 50.4537 57.3557 49.3661 58.2204C50.4259 58.1343 51.6161 58.2788 52.6232 58.2455C52.3652 56.9553 52.6926 56.0266 53.1836 55.2064C52.1266 53.5159 52.5927 50.3433 52.8479 48.119C52.6093 47.1291 51.3942 46.7037 51.2776 45.7583C51.2 45.1494 51.7826 44.7323 51.6133 43.9594C52.4345 43.5284 53.8106 42.7637 53.2974 41.7099C52.343 41.7211 51.1473 41.6265 50.2678 41.2595C48.6143 39.2047 46.3282 37.6199 44.7608 35.4789C43.0989 34.2944 41.3622 33.349 40.8406 31.0246C39.9778 29.829 38.1745 29.5731 37.4726 28.2135C36.6625 28.0133 36.2602 27.4044 35.3391 27.3126C35.0562 27.1096 35.0562 26.6231 34.665 26.5257C33.8965 26.5091 33.2417 26.3784 32.6453 26.1865C31.9905 26.3311 30.8281 26.0975 31.2526 25.6944C31.6021 25.3635 33.1058 24.8964 33.7661 24.9131C36.6514 24.9881 40.2247 24.6016 43.934 29.17C43.8286 28.7112 43.9895 27.8771 43.3042 27.7241C43.6205 27.0429 43.1766 26.5591 42.5607 26.5674C42.655 25.725 41.6674 24.9881 40.9516 25.2523C41.0293 24.4849 39.9667 23.8454 39.201 24.2318C39.0567 23.2837 38.033 23.0891 37.4532 23.5173C37.1036 23.0807 36.0993 22.722 35.5916 23.1641C35.3058 22.6053 34.8453 22.7526 34.4514 22.7804C37.9775 22.2327 41.3816 23.1502 44.2253 25.5164C44.0339 25.0855 44.217 24.1707 43.3292 24.2179C43.5012 23.6479 42.9408 23.2003 42.3748 23.2281C42.2056 22.3689 41.2374 21.9018 40.541 22.2466C40.3662 21.5542 39.3037 21.051 38.6295 21.5876C38.3743 21.0315 37.4088 20.6256 36.7762 21.2261C36.4017 20.645 35.2504 20.4226 34.8342 21.0009C34.4597 20.481 33.5525 19.9805 32.6952 20.8397C32.2569 20.4365 31.0167 20.2168 30.6616 21.2679C29.7766 20.7979 29.3743 21.4097 29.1413 21.8768C28.5975 21.5737 27.6487 21.8267 27.6293 22.7165C26.9523 22.444 26.4114 22.9306 26.4308 23.8037C24.8355 23.4227 24.8078 24.8213 24.9909 25.611C23.3984 25.5025 23.8229 27.2514 23.8229 27.2514L23.8285 27.2598Z" fill="#000319"/>
<path fill-rule="evenodd" clip-rule="evenodd" d="M51.838 51.2749C51.9573 50.4018 52.3124 48.9866 52.0627 47.9022C51.9129 47.2515 51.1527 46.9596 50.9391 46.2144C50.6423 45.1717 51.0862 43.8844 50.4897 43.1781C51.3497 43.2143 52.1903 43.2338 52.3984 42.6165C48.8057 42.1104 47.6293 39.152 45.5514 37.1056C44.83 36.3938 43.9256 35.8961 43.196 35.1954C41.8088 33.858 40.8517 32.337 39.1538 31.4834C39.2259 31.2554 39.6781 31.4084 39.7142 31.1442C38.9235 30.1683 37.6584 29.0894 36.2352 29.12C36.1741 28.7224 36.6319 28.842 36.5736 28.4444C35.8301 27.702 34.1822 27.474 32.7562 27.7687C32.7617 27.2488 33.3943 27.36 33.3166 26.7566C32.2929 26.6621 31.2025 26.587 30.2648 26.7483C29.8542 26.6398 29.5324 26.4313 29.9291 26.0337C30.7115 25.2496 31.8545 24.5878 33.2722 24.5267C34.5123 24.4738 34.787 24.4516 35.7608 24.5573C36.4571 24.6323 38.8125 24.8937 40.2829 25.7139C41.5952 26.4452 42.0724 26.8929 43.0045 27.752C43.0045 27.752 43.3902 27.2933 43.0462 26.9985C42.7049 26.7038 42.1778 26.8678 42.1778 26.5731C42.1778 26.2784 42.0696 25.4248 41.2983 25.586C40.8655 25.6778 40.516 25.4971 40.516 25.2051C40.516 24.9132 40.0721 24.2931 39.5228 24.6601C39.1954 24.8798 38.6877 24.2514 38.5906 24.0067C38.4935 23.762 38.0773 23.5757 37.6362 23.8705C37.1951 24.1652 37.0009 23.7064 36.8539 23.509C36.7068 23.3116 36.0132 23.2949 35.7192 23.5424C35.4251 23.7871 35.2475 23.0864 34.2127 22.9974C33.2611 22.9168 32.5287 23.053 31.5993 23.3144C32.1181 22.9029 33.7327 22.4552 34.2515 22.3607C35.4861 22.1355 38.1633 22.3968 39.298 22.6526C40.8406 22.9974 40.9432 23.2727 42.9851 24.2931C42.9851 24.2931 43.0683 23.826 42.7743 23.6786C42.4802 23.5313 42.0113 23.3394 42.0113 23.3394C42.0113 23.3394 41.4315 22.4052 40.8433 22.5525C40.2552 22.6999 40.2552 22.4052 40.011 22.1605C39.7669 21.9158 39.4728 21.6211 39.1288 21.7684C38.7848 21.9158 38.2493 21.7684 38.0995 21.571C37.9525 21.3736 37.4226 21.1428 36.9732 21.521C36.7623 21.6989 36.5015 21.5321 36.2879 21.3263C36.0021 21.0483 35.6026 20.8842 34.9673 21.3736C34.332 21.8658 34.6732 21.2262 34.2321 21.0316C33.791 20.8342 33.2528 20.8842 32.9115 21.3736C32.5703 21.8658 32.4704 21.179 32.1292 21.0316C31.7852 20.8842 31.1498 20.9816 31.1498 21.3736C31.1498 21.7657 30.6616 21.8157 30.4646 21.6183C30.2676 21.4209 29.7793 21.6183 29.6822 22.1077C29.5851 22.597 29.0192 22.3162 28.8 22.205C28.3228 21.9659 27.8706 22.597 28.0176 22.8918C28.1647 23.1865 27.6264 23.2365 27.4794 23.0892C27.3324 22.9418 26.9412 23.0892 26.9911 23.5785C27.0411 24.0707 26.7941 24.3626 26.5001 24.2153C26.206 24.0679 25.3737 24.3626 25.4736 25.1968C25.5707 26.0309 25.5707 26.2756 25.1795 26.2756C24.7883 26.2756 24.0947 26.2339 24.2002 26.8651C24.3305 27.6464 23.5732 28.3332 23.5898 29.2424C23.6064 30.1516 24.4776 31.5891 24.7217 31.8838C24.7245 31.8866 24.73 31.8894 24.7328 31.8949C24.9353 32.2286 25.2183 32.5678 25.726 32.9154C26.0867 32.6373 25.5762 31.8505 26.0173 31.8199C26.8718 32.8653 26.4779 34.7171 28.3866 35.4623C29.0358 35.276 29.1135 34.9201 29.2744 34.5197C27.6847 32.9682 28.7001 32.4371 28.5642 30.8022C29.1634 30.6076 29.2827 30.8161 29.7238 31.147C30.7281 31.1053 31.1998 32.0785 31.971 32.7235C32.5093 33.174 33.3804 33.3408 33.8798 33.9608C34.2626 34.4363 35.0672 36.2881 34.8896 36.9971C34.4541 38.7461 31.7297 36.936 30.287 37.1084C29.8265 37.164 28.6474 37.4837 28.603 38.3457C28.5808 38.8128 29.6767 39.9361 29.9486 40.5339C30.7892 42.3996 31.7269 43.3366 33.4303 43.8566C33.5163 43.4339 33.2944 43.3199 33.3166 42.9585C33.0752 42.7889 32.6202 42.8334 32.5315 42.508C32.5758 40.8842 29.9818 40.8592 30.2482 39.3744C30.2926 39.127 30.3841 38.7766 30.7337 38.6849C32.5315 38.2039 36.0354 41.9019 37.5807 40.7091C38.155 39.8972 37.7611 38.1149 38.7016 37.6728C39.004 38.9212 38.352 39.9083 38.5906 41.0483C40.7213 42.2467 42.9601 42.5803 45.5486 43.2977C45.6263 42.2439 44.7607 41.5404 44.6497 41.0483C47.0384 41.9603 46.256 45.0995 47.793 46.6704C48.3257 47.2182 49.2274 47.221 49.8127 47.6825C51.1999 48.778 50.7782 51.261 50.9696 53.8941C51.0612 55.1453 51.1888 56.6718 50.7088 57.581H51.8324C51.8879 56.8108 52.0821 56.1797 52.3929 55.6681C52.2541 54.161 51.6299 52.7541 51.8324 51.2805L51.838 51.2749ZM27.1465 29.3341C27.3712 28.7169 28.3755 28.3415 27.9316 27.4239C26.8968 27.474 27.1826 28.8475 26.3613 29.1117C26.3503 28.9838 26.3253 28.8559 26.2837 28.728C26.0728 28.0885 26.833 27.2933 27.3213 27.0958C27.8123 26.8984 28.1341 26.5258 28.3117 27.0708C28.4782 27.5769 28.517 27.9578 28.4976 28.2442C28.0703 29.298 27.3962 29.5454 27.1493 29.3397L27.1465 29.3341Z" fill="#CBCED0"/>
<path d="M95.3894 41.3265C95.1897 41.3265 95.0537 41.193 95.0537 40.99V21.9743C95.0537 21.8408 94.9871 21.7741 94.854 21.7741H91.3722C91.1724 21.7741 91.0365 21.6407 91.0365 21.4377V18.8546C91.0365 18.6544 91.1697 18.5182 91.3722 18.5182H102.314C102.514 18.5182 102.65 18.6516 102.65 18.8546V21.4377C102.65 21.6379 102.517 21.7741 102.314 21.7741H98.8351C98.702 21.7741 98.6354 21.8408 98.6354 21.9743V40.99C98.6354 41.1902 98.5022 41.3265 98.2997 41.3265H95.3894Z" fill="#110D0C"/>
<path d="M104.891 18.8546C104.891 18.6544 105.025 18.5182 105.227 18.5182H108.137C108.337 18.5182 108.473 18.6516 108.473 18.8546V27.8439C108.473 27.9774 108.54 28.0441 108.673 28.0441H112.521C112.654 28.0441 112.721 27.9774 112.721 27.8439V18.8546C112.721 18.6544 112.854 18.5182 113.056 18.5182H115.967C116.166 18.5182 116.302 18.6516 116.302 18.8546V40.99C116.302 41.1902 116.169 41.3265 115.967 41.3265H113.056C112.857 41.3265 112.721 41.193 112.721 40.99V31.4975C112.721 31.364 112.654 31.2973 112.521 31.2973H108.673C108.54 31.2973 108.473 31.364 108.473 31.4975V40.99C108.473 41.1902 108.34 41.3265 108.137 41.3265H105.227C105.027 41.3265 104.891 41.193 104.891 40.99V18.8546Z" fill="#110D0C"/>
<path d="M119.851 18.8546C119.851 18.6544 119.984 18.5182 120.187 18.5182H129.522C129.722 18.5182 129.858 18.6516 129.858 18.8546V21.4377C129.858 21.6379 129.725 21.7741 129.522 21.7741H123.632C123.499 21.7741 123.433 21.8408 123.433 21.9743V27.9774C123.433 28.1108 123.499 28.1776 123.632 28.1776H128.721C128.92 28.1776 129.056 28.311 129.056 28.514V31.0971C129.056 31.2973 128.923 31.4335 128.721 31.4335H123.632C123.499 31.4335 123.433 31.5002 123.433 31.6337V37.8731C123.433 38.0066 123.499 38.0733 123.632 38.0733H129.522C129.722 38.0733 129.858 38.2068 129.858 38.4097V40.9928C129.858 41.193 129.725 41.3292 129.522 41.3292H120.187C119.987 41.3292 119.851 41.1958 119.851 40.9928V18.8574V18.8546Z" fill="#110D0C"/>
<path d="M141.235 41.3265C141.035 41.3265 140.933 41.2597 140.866 41.0929L138.089 32.0035H136.383C136.25 32.0035 136.183 32.0702 136.183 32.2037V40.99C136.183 41.1902 136.05 41.3265 135.847 41.3265H132.937C132.737 41.3265 132.601 41.193 132.601 40.99V18.8546C132.601 18.6544 132.735 18.5182 132.937 18.5182H137.523C141.574 18.5182 144.015 20.2949 144.015 25.2942C144.015 28.2777 143.011 30.1573 141.304 31.1304L144.517 40.99C144.584 41.1568 144.517 41.3265 144.351 41.3265H141.238H141.235ZM140.43 25.2942C140.43 22.611 139.559 21.7713 137.554 21.7713H136.383C136.25 21.7713 136.183 21.8381 136.183 21.9715V28.6113C136.183 28.7448 136.25 28.8115 136.383 28.8115H137.554C139.562 28.8115 140.43 28.008 140.43 25.2886V25.2942Z" fill="#D20A11"/>
<path d="M147.191 18.8546C147.191 18.6544 147.324 18.5182 147.527 18.5182H156.863C157.062 18.5182 157.198 18.6516 157.198 18.8546V21.4377C157.198 21.6379 157.065 21.7741 156.863 21.7741H150.973C150.84 21.7741 150.773 21.8408 150.773 21.9743V27.9774C150.773 28.1108 150.84 28.1776 150.973 28.1776H156.061C156.261 28.1776 156.397 28.311 156.397 28.514V31.0971C156.397 31.2973 156.263 31.4335 156.061 31.4335H150.973C150.84 31.4335 150.773 31.5002 150.773 31.6337V37.8731C150.773 38.0066 150.84 38.0733 150.973 38.0733H156.863C157.062 38.0733 157.198 38.2068 157.198 38.4097V40.9928C157.198 41.193 157.065 41.3292 156.863 41.3292H147.527C147.327 41.3292 147.191 41.1958 147.191 40.9928V18.8574V18.8546Z" fill="#D20A11"/>
<path d="M159.942 18.8546C159.942 18.6544 160.076 18.5182 160.278 18.5182H165.533C168.512 18.5182 170.252 19.7249 171.054 22.1745C171.456 23.4146 171.622 24.9578 171.622 29.9209C171.622 34.8841 171.456 36.4273 171.054 37.6673C170.249 40.117 168.51 41.3237 165.533 41.3237H160.278C160.078 41.3237 159.942 41.1902 159.942 40.9872V18.8518V18.8546ZM163.724 38.0733H165.164C166.434 38.0733 167.172 37.57 167.572 36.43C167.841 35.5903 167.974 34.4837 167.974 29.9237C167.974 25.3637 167.841 24.2543 167.572 23.4174C167.17 22.2774 166.434 21.7741 165.164 21.7741H163.724C163.591 21.7741 163.524 21.8408 163.524 21.9743V37.8731C163.524 38.0066 163.591 38.0733 163.724 38.0733Z" fill="#D20A11"/>
<path d="M174.766 18.8546C174.766 18.6544 174.899 18.5182 175.102 18.5182H178.012C178.212 18.5182 178.348 18.6516 178.348 18.8546V37.8703C178.348 38.0038 178.414 38.0705 178.548 38.0705H184.437C184.637 38.0705 184.773 38.204 184.773 38.407V40.99C184.773 41.1902 184.64 41.3265 184.437 41.3265H175.102C174.902 41.3265 174.766 41.193 174.766 40.99V18.8546Z" fill="#110D0C"/>
<path d="M187.214 18.8546C187.214 18.6544 187.347 18.5182 187.55 18.5182H196.885C197.085 18.5182 197.221 18.6516 197.221 18.8546V21.4377C197.221 21.6379 197.088 21.7741 196.885 21.7741H190.995C190.862 21.7741 190.796 21.8408 190.796 21.9743V27.9774C190.796 28.1108 190.862 28.1776 190.995 28.1776H196.081C196.28 28.1776 196.416 28.311 196.416 28.514V31.0971C196.416 31.2973 196.283 31.4335 196.081 31.4335H190.995C190.862 31.4335 190.796 31.5002 190.796 31.6337V37.8731C190.796 38.0066 190.862 38.0733 190.995 38.0733H196.885C197.085 38.0733 197.221 38.2068 197.221 38.4097V40.9928C197.221 41.193 197.088 41.3292 196.885 41.3292H187.55C187.35 41.3292 187.214 41.1958 187.214 40.9928V18.8574V18.8546Z" fill="#110D0C"/>
<path d="M199.562 29.9208C199.562 23.5813 199.662 22.7778 199.998 21.7712C200.733 19.5246 202.575 18.215 205.386 18.215C208.665 18.215 210.673 19.9584 211.042 23.548C211.076 23.7482 210.943 23.9178 210.773 23.9511L208.063 24.421C207.863 24.4544 207.727 24.3543 207.694 24.1513C207.527 22.3746 206.756 21.4682 205.419 21.4682C204.448 21.4682 203.679 21.9714 203.444 22.7444C203.244 23.3811 203.21 23.6509 203.21 29.9208C203.21 36.1908 203.244 36.4605 203.444 37.0973C203.677 37.8675 204.514 38.3707 205.452 38.3707C206.39 38.3707 207.258 37.8675 207.494 37.0973C207.66 36.5273 207.727 36.1908 207.727 31.9645C207.727 31.831 207.661 31.7643 207.527 31.7643H205.755C205.555 31.7643 205.419 31.6308 205.419 31.4279V28.9449C205.419 28.7447 205.552 28.6084 205.755 28.6084H210.84C211.04 28.6084 211.176 28.7419 211.176 28.9449V29.9514C211.176 36.2576 211.076 37.0611 210.74 38.0676C210.005 40.3143 208.163 41.6239 205.386 41.6239C202.608 41.6239 200.733 40.3171 199.998 38.0676C199.662 37.0611 199.562 36.2576 199.562 29.9181V29.9208Z" fill="#110D0C"/>
<path d="M214.222 18.8546C214.222 18.6544 214.355 18.5182 214.558 18.5182H223.893C224.093 18.5182 224.229 18.6516 224.229 18.8546V21.4377C224.229 21.6379 224.096 21.7741 223.893 21.7741H218.003C217.87 21.7741 217.804 21.8408 217.804 21.9743V27.9774C217.804 28.1108 217.87 28.1776 218.003 28.1776H223.089C223.288 28.1776 223.424 28.311 223.424 28.514V31.0971C223.424 31.2973 223.291 31.4335 223.089 31.4335H218.003C217.87 31.4335 217.804 31.5002 217.804 31.6337V37.8731C217.804 38.0066 217.87 38.0733 218.003 38.0733H223.893C224.093 38.0733 224.229 38.2068 224.229 38.4097V40.9928C224.229 41.193 224.096 41.3292 223.893 41.3292H214.558C214.358 41.3292 214.222 41.1958 214.222 40.9928V18.8574V18.8546Z" fill="#110D0C"/>
<path d="M226.97 18.8546C226.97 18.6544 227.104 18.5182 227.306 18.5182H230.855C231.124 18.5182 231.257 18.6183 231.323 18.8546L235.54 34.6172H235.707V18.8546C235.707 18.6544 235.84 18.5182 236.043 18.5182H238.52C238.72 18.5182 238.856 18.6516 238.856 18.8546V40.99C238.856 41.1902 238.723 41.3265 238.52 41.3265H235.207C234.938 41.3265 234.805 41.2264 234.739 40.99L230.322 25.2275H230.122V40.99C230.122 41.1902 229.989 41.3265 229.786 41.3265H227.309C227.109 41.3265 226.973 41.193 226.973 40.99V18.8546H226.97Z" fill="#110D0C"/>
<path d="M242.398 18.8546C242.398 18.6544 242.531 18.5182 242.734 18.5182H247.989C250.965 18.5182 252.708 19.7249 253.51 22.1745C253.912 23.4146 254.078 24.9578 254.078 29.9209C254.078 34.8841 253.912 36.4273 253.51 37.6673C252.708 40.117 250.965 41.3237 247.989 41.3237H242.734C242.534 41.3237 242.398 41.1902 242.398 40.9872V18.8518V18.8546ZM246.18 38.0733H247.62C248.89 38.0733 249.628 37.57 250.03 36.43C250.297 35.5903 250.433 34.4837 250.433 29.9237C250.433 25.3637 250.3 24.2543 250.03 23.4174C249.628 22.2774 248.893 21.7741 247.62 21.7741H246.18C246.047 21.7741 245.98 21.8408 245.98 21.9743V37.8731C245.98 38.0066 246.047 38.0733 246.18 38.0733Z" fill="#110D0C"/>
<path d="M262.176 41.6266C258.495 41.6266 256.589 39.6469 256.486 35.657C256.486 35.4568 256.553 35.3205 256.752 35.2871L259.563 34.8172C259.799 34.7839 259.932 34.9173 259.932 35.1203C260.032 37.5366 260.734 38.4736 262.273 38.4736C263.713 38.4736 264.415 37.7034 264.415 35.2204C264.415 32.7374 263.946 31.9673 262.173 31.2638L260.8 30.7272C257.654 29.4871 256.716 27.8438 256.716 24.2876C256.716 20.3643 258.489 18.2178 262.237 18.2178C265.985 18.2178 267.625 20.2308 267.825 23.7843C267.825 23.9845 267.725 24.0874 267.522 24.1541L264.845 24.5573C264.645 24.5906 264.476 24.4905 264.476 24.2876C264.41 22.4107 263.808 21.3708 262.334 21.3708C260.861 21.3708 260.259 22.2439 260.259 24.1207C260.259 26.2339 260.661 26.8706 262.468 27.5741L263.841 28.1107C266.82 29.2841 267.991 30.894 267.991 34.7839C267.991 39.2771 266.485 41.6266 262.168 41.6266H262.176Z" fill="#110D0C"/>
<path d="M124.253 61.785C122.561 61.785 121.684 60.8758 121.637 59.0407C121.637 58.9489 121.668 58.8878 121.759 58.8711L123.052 58.6542C123.16 58.6403 123.221 58.7015 123.221 58.7932C123.268 59.9026 123.59 60.3336 124.298 60.3336C124.958 60.3336 125.283 59.9805 125.283 58.8377C125.283 57.6949 125.066 57.3418 124.253 57.0193L123.624 56.7718C122.178 56.2018 121.748 55.4455 121.748 53.8106C121.748 52.0061 122.564 51.019 124.287 51.019C126.01 51.019 126.764 51.9449 126.856 53.5771C126.856 53.6688 126.809 53.7161 126.717 53.7467L125.485 53.9302C125.394 53.9469 125.316 53.8996 125.316 53.8078C125.285 52.9431 125.008 52.4676 124.331 52.4676C123.654 52.4676 123.377 52.868 123.377 53.7328C123.377 54.7031 123.563 54.9979 124.392 55.3204L125.022 55.5679C126.39 56.1073 126.931 56.8469 126.931 58.6348C126.931 60.7006 126.24 61.7795 124.253 61.7795V61.785Z" fill="#110D0C"/>
<path d="M128.345 61.646C128.254 61.646 128.193 61.5848 128.193 61.4931V51.3193C128.193 51.2275 128.254 51.1664 128.345 51.1664H130.454C132.316 51.1664 133.423 51.9977 133.423 54.3889C133.423 56.7801 132.316 57.6115 130.454 57.6115H129.93C129.869 57.6115 129.838 57.6421 129.838 57.7033V61.4958C129.838 61.5876 129.777 61.6488 129.685 61.6488H128.348L128.345 61.646ZM131.777 54.3834C131.777 53.0571 131.392 52.6567 130.454 52.6567H129.93C129.869 52.6567 129.838 52.6873 129.838 52.7484V56.0155C129.838 56.0767 129.869 56.1073 129.93 56.1073H130.454C131.392 56.1073 131.777 55.7069 131.777 54.3806V54.3834Z" fill="#110D0C"/>
<path d="M134.743 60.1501C134.59 59.6885 134.543 59.3187 134.543 56.4048C134.543 53.4908 134.59 53.121 134.743 52.6595C135.081 51.6279 135.927 51.0245 137.22 51.0245C138.513 51.0245 139.343 51.6251 139.681 52.6595C139.834 53.121 139.881 53.4908 139.881 56.4048C139.881 59.3187 139.834 59.6885 139.681 60.1501C139.343 61.1816 138.496 61.785 137.22 61.785C135.944 61.785 135.081 61.1844 134.743 60.1501ZM138.097 59.7024C138.188 59.4105 138.205 59.2854 138.205 56.402C138.205 53.5186 138.188 53.3963 138.097 53.1043C137.989 52.7512 137.65 52.5177 137.22 52.5177C136.79 52.5177 136.435 52.7484 136.327 53.1043C136.235 53.3963 136.219 53.5214 136.219 56.402C136.219 59.2826 136.235 59.4077 136.327 59.7024C136.435 60.0555 136.774 60.2891 137.22 60.2891C137.667 60.2891 137.989 60.0583 138.097 59.7024Z" fill="#110D0C"/>
<path d="M145.297 61.646C145.205 61.646 145.158 61.6154 145.128 61.5375L143.851 57.3613H143.066C143.005 57.3613 142.975 57.3918 142.975 57.453V61.4931C142.975 61.5848 142.914 61.646 142.822 61.646H141.485C141.393 61.646 141.332 61.5848 141.332 61.4931V51.3193C141.332 51.2275 141.393 51.1664 141.485 51.1664H143.593C145.455 51.1664 146.579 51.9838 146.579 54.2805C146.579 55.6513 146.118 56.516 145.333 56.9637L146.809 61.4958C146.839 61.5737 146.809 61.6488 146.731 61.6488H145.3L145.297 61.646ZM144.928 54.2749C144.928 53.0404 144.528 52.6567 143.605 52.6567H143.066C143.005 52.6567 142.975 52.6873 142.975 52.7484V55.8014C142.975 55.8626 143.005 55.8932 143.066 55.8932H143.605C144.528 55.8932 144.928 55.5234 144.928 54.2749Z" fill="#110D0C"/>
<path d="M149.342 61.646C149.25 61.646 149.189 61.5848 149.189 61.4931V52.7512C149.189 52.6901 149.159 52.6595 149.098 52.6595H147.497C147.405 52.6595 147.344 52.5983 147.344 52.5065V51.3193C147.344 51.2275 147.405 51.1664 147.497 51.1664H152.527C152.618 51.1664 152.679 51.2275 152.679 51.3193V52.5065C152.679 52.5983 152.618 52.6595 152.527 52.6595H150.926C150.865 52.6595 150.834 52.6901 150.834 52.7512V61.4931C150.834 61.5848 150.773 61.646 150.682 61.646H149.345H149.342Z" fill="#110D0C"/>
<path d="M158.816 61.785C157.123 61.785 156.247 60.8758 156.199 59.0407C156.199 58.9489 156.23 58.8878 156.321 58.8711L157.614 58.6542C157.722 58.6403 157.783 58.7015 157.783 58.7932C157.831 59.9026 158.152 60.3336 158.86 60.3336C159.52 60.3336 159.845 59.9805 159.845 58.8377C159.845 57.6949 159.628 57.3418 158.816 57.0193L158.186 56.7718C156.74 56.2018 156.31 55.4455 156.31 53.8106C156.31 52.0061 157.126 51.019 158.849 51.019C160.572 51.019 161.326 51.9449 161.418 53.5771C161.418 53.6688 161.371 53.7161 161.279 53.7467L160.047 53.9302C159.956 53.9469 159.878 53.8996 159.878 53.8078C159.848 52.9431 159.57 52.4676 158.893 52.4676C158.216 52.4676 157.939 52.868 157.939 53.7328C157.939 54.7031 158.125 54.9979 158.954 55.3204L159.584 55.5679C160.952 56.1073 161.493 56.8469 161.493 58.6348C161.493 60.7006 160.802 61.7795 158.816 61.7795V61.785Z" fill="#110D0C"/>
<path d="M162.908 61.646C162.816 61.646 162.755 61.5848 162.755 61.4931V51.3193C162.755 51.2275 162.816 51.1664 162.908 51.1664H165.016C166.878 51.1664 167.985 51.9977 167.985 54.3889C167.985 56.7801 166.878 57.6115 165.016 57.6115H164.495C164.434 57.6115 164.403 57.6421 164.403 57.7033V61.4958C164.403 61.5876 164.342 61.6488 164.25 61.6488H162.913L162.908 61.646ZM166.337 54.3834C166.337 53.0571 165.951 52.6567 165.013 52.6567H164.492C164.431 52.6567 164.4 52.6873 164.4 52.7484V56.0155C164.4 56.0767 164.431 56.1073 164.492 56.1073H165.013C165.951 56.1073 166.337 55.7069 166.337 54.3806V54.3834Z" fill="#110D0C"/>
<path d="M169.292 51.3165C169.292 51.2248 169.353 51.1636 169.445 51.1636H170.782C170.873 51.1636 170.934 51.2248 170.934 51.3165V61.4903C170.934 61.5821 170.873 61.6432 170.782 61.6432H169.445C169.353 61.6432 169.292 61.5821 169.292 61.4903V51.3165Z" fill="#110D0C"/>
<path d="M176.536 61.646C176.444 61.646 176.397 61.6154 176.367 61.5375L175.09 57.3613H174.305C174.244 57.3613 174.214 57.3918 174.214 57.453V61.4931C174.214 61.5848 174.153 61.646 174.061 61.646H172.724C172.632 61.646 172.571 61.5848 172.571 61.4931V51.3193C172.571 51.2275 172.632 51.1664 172.724 51.1664H174.832C176.694 51.1664 177.817 51.9838 177.817 54.2805C177.817 55.6513 177.357 56.516 176.572 56.9637L178.048 61.4958C178.078 61.5737 178.048 61.6488 177.97 61.6488H176.539L176.536 61.646ZM176.167 54.2749C176.167 53.0404 175.767 52.6567 174.843 52.6567H174.305C174.244 52.6567 174.214 52.6873 174.214 52.7484V55.8014C174.214 55.8626 174.244 55.8932 174.305 55.8932H174.843C175.767 55.8932 176.167 55.5234 176.167 54.2749Z" fill="#110D0C"/>
<path d="M179.274 51.3165C179.274 51.2248 179.335 51.1636 179.427 51.1636H180.764C180.855 51.1636 180.916 51.2248 180.916 51.3165V61.4903C180.916 61.5821 180.855 61.6432 180.764 61.6432H179.427C179.335 61.6432 179.274 61.5821 179.274 61.4903V51.3165Z" fill="#110D0C"/>
<path d="M183.952 61.646C183.86 61.646 183.799 61.5848 183.799 61.4931V52.7512C183.799 52.6901 183.768 52.6595 183.707 52.6595H182.107C182.015 52.6595 181.954 52.5983 181.954 52.5065V51.3193C181.954 51.2275 182.015 51.1664 182.107 51.1664H187.136C187.228 51.1664 187.289 51.2275 187.289 51.3193V52.5065C187.289 52.5983 187.228 52.6595 187.136 52.6595H185.536C185.475 52.6595 185.444 52.6901 185.444 52.7512V61.4931C185.444 61.5848 185.383 61.646 185.292 61.646H183.954H183.952Z" fill="#110D0C"/>
<path d="M193.425 61.785C191.733 61.785 190.856 60.8758 190.809 59.0407C190.809 58.9489 190.84 58.8878 190.931 58.8711L192.224 58.6542C192.332 58.6403 192.393 58.7015 192.393 58.7932C192.44 59.9026 192.762 60.3336 193.47 60.3336C194.13 60.3336 194.455 59.9805 194.455 58.8377C194.455 57.6949 194.238 57.3418 193.425 57.0193L192.796 56.7718C191.35 56.2018 190.92 55.4455 190.92 53.8106C190.92 52.0061 191.736 51.019 193.459 51.019C195.181 51.019 195.936 51.9449 196.028 53.5771C196.028 53.6688 195.98 53.7161 195.889 53.7467L194.657 53.9302C194.566 53.9469 194.488 53.8996 194.488 53.8078C194.457 52.9431 194.18 52.4676 193.503 52.4676C192.826 52.4676 192.549 52.868 192.549 53.7328C192.549 54.7031 192.732 54.9979 193.564 55.3204L194.194 55.5679C195.562 56.1073 196.1 56.8469 196.1 58.6348C196.1 60.7006 195.409 61.7795 193.423 61.7795L193.425 61.785Z" fill="#110D0C"/>
<path d="M197.362 51.3165C197.362 51.2248 197.423 51.1636 197.515 51.1636H198.852C198.944 51.1636 199.005 51.2248 199.005 51.3165V61.4903C199.005 61.5821 198.944 61.6432 198.852 61.6432H197.515C197.423 61.6432 197.362 61.5821 197.362 61.4903V51.3165Z" fill="#110D0C"/>
<path d="M200.639 51.3165C200.639 51.2248 200.7 51.1636 200.791 51.1636H202.423C202.545 51.1636 202.606 51.2109 202.636 51.3165L204.576 58.5624H204.653V51.3165C204.653 51.2248 204.714 51.1636 204.806 51.1636H205.943C206.035 51.1636 206.096 51.2248 206.096 51.3165V61.4903C206.096 61.5821 206.035 61.6432 205.943 61.6432H204.42C204.298 61.6432 204.237 61.596 204.204 61.4903L202.173 54.2444H202.082V61.4903C202.082 61.5821 202.02 61.6432 201.929 61.6432H200.791C200.7 61.6432 200.639 61.5821 200.639 61.4903V51.3165Z" fill="#110D0C"/>
<path d="M207.544 56.402C207.544 53.4881 207.605 53.0571 207.744 52.6261C208.065 51.6251 208.837 51.0218 210.113 51.0218C211.605 51.0218 212.543 51.792 212.635 53.5353C212.649 53.6271 212.618 53.7049 212.527 53.7188L211.281 53.9357C211.189 53.9524 211.112 53.9051 211.112 53.7967C211.064 52.9014 210.756 52.5177 210.157 52.5177C209.697 52.5177 209.45 52.7179 209.328 53.1044C209.25 53.3518 209.22 53.5659 209.22 56.402C209.22 59.2381 209.25 59.455 209.328 59.7024C209.45 60.0889 209.697 60.2891 210.157 60.2891C210.756 60.2891 211.064 59.9026 211.112 59.0101C211.112 58.9017 211.189 58.8572 211.281 58.8711L212.527 59.0879C212.618 59.1046 212.649 59.1797 212.635 59.2742C212.543 61.0148 211.605 61.7878 210.113 61.7878C208.837 61.7878 208.068 61.1872 207.744 60.1835C207.605 59.7525 207.544 59.3215 207.544 56.4076V56.402Z" fill="#110D0C"/>
<path d="M213.684 51.3165C213.684 51.2248 213.745 51.1636 213.837 51.1636H218.128C218.22 51.1636 218.281 51.2248 218.281 51.3165V52.5038C218.281 52.5955 218.22 52.6567 218.128 52.6567H215.421C215.36 52.6567 215.329 52.6873 215.329 52.7485V55.5067C215.329 55.5679 215.36 55.5985 215.421 55.5985H217.759C217.851 55.5985 217.912 55.6596 217.912 55.7514V56.9386C217.912 57.0304 217.851 57.0916 217.759 57.0916H215.421C215.36 57.0916 215.329 57.1222 215.329 57.1833V60.05C215.329 60.1112 215.36 60.1418 215.421 60.1418H218.128C218.22 60.1418 218.281 60.2029 218.281 60.2947V61.482C218.281 61.5737 218.22 61.6349 218.128 61.6349H213.837C213.745 61.6349 213.684 61.5737 213.684 61.482V51.3082V51.3165Z" fill="#110D0C"/>
<path d="M222.221 52.5594H222.196L221.169 53.2851C221.108 53.3324 221.036 53.3101 221.036 53.2128V52.184C221.036 52.0979 221.061 52.0506 221.158 51.9783L222.209 51.2025C222.282 51.1553 222.343 51.1302 222.426 51.1302H223.333C223.405 51.1302 223.455 51.1775 223.455 51.2526V59.2465C223.455 59.3188 223.408 59.3688 223.333 59.3688H222.343C222.271 59.3688 222.221 59.3215 222.221 59.2465V52.5594Z" fill="#110D0C"/>
<path d="M227.575 55.9627L227.55 55.9377C227.489 55.9738 227.345 56.01 227.14 56.01C226.355 56.01 225.919 55.6096 225.7 54.9089C225.628 54.6781 225.578 54.3389 225.578 53.527C225.578 52.7151 225.614 52.412 225.686 52.1813C225.916 51.4555 226.507 51.019 227.414 51.019C228.322 51.019 228.913 51.4555 229.154 52.1813C229.226 52.412 229.262 52.679 229.262 53.527C229.262 54.667 229.165 55.1008 228.876 55.8654L227.584 59.2465C227.548 59.3327 227.498 59.3688 227.414 59.3688H226.41C226.324 59.3688 226.288 59.3215 226.324 59.2353L227.57 55.9655L227.575 55.9627ZM227.986 54.4835C228.022 54.3751 228.033 54.2666 228.033 53.527C228.033 52.7874 228.022 52.6678 227.986 52.5455C227.9 52.2897 227.708 52.1451 227.417 52.1451C227.126 52.1451 226.946 52.2897 226.862 52.5455C226.826 52.6651 226.815 52.7763 226.815 53.527C226.815 54.2777 226.826 54.3751 226.862 54.4835C226.948 54.7504 227.129 54.8839 227.417 54.8839C227.706 54.8839 227.9 54.7504 227.986 54.4835Z" fill="#110D0C"/>
<path d="M230.416 58.3845C230.416 58.2983 230.427 58.251 230.477 58.1426L232.519 54.4585C232.749 54.0581 232.833 53.755 232.833 53.1016C232.833 52.7735 232.821 52.6651 232.785 52.5455C232.699 52.2897 232.519 52.1451 232.217 52.1451C231.914 52.1451 231.745 52.2897 231.662 52.5455C231.626 52.6651 231.615 52.7763 231.615 53.2962C231.615 53.3935 231.554 53.4297 231.47 53.4186L230.527 53.3324C230.455 53.3212 230.419 53.2712 230.419 53.1878C230.419 52.679 230.444 52.4009 230.516 52.1701C230.757 51.4444 231.337 51.019 232.244 51.019C233.152 51.019 233.72 51.4305 233.962 52.159C234.034 52.3898 234.07 52.679 234.07 53.1044C234.07 54.0136 233.912 54.4612 233.562 55.0785L231.762 58.2288V58.2399H233.951C234.023 58.2399 234.073 58.2872 234.073 58.3623V59.2465C234.073 59.3187 234.026 59.3688 233.951 59.3688H230.541C230.469 59.3688 230.419 59.3215 230.419 59.2465V58.3873L230.416 58.3845Z" fill="#110D0C"/>
<path d="M237.197 55.9627L237.172 55.9377C237.111 55.9738 236.966 56.01 236.761 56.01C235.976 56.01 235.54 55.6096 235.324 54.9089C235.252 54.6781 235.202 54.3389 235.202 53.527C235.202 52.7151 235.238 52.412 235.31 52.1813C235.54 51.4555 236.131 51.019 237.038 51.019C237.946 51.019 238.537 51.4555 238.778 52.1813C238.85 52.412 238.886 52.679 238.886 53.527C238.886 54.667 238.789 55.1008 238.501 55.8654L237.208 59.2465C237.172 59.3327 237.122 59.3688 237.038 59.3688H236.034C235.948 59.3688 235.912 59.3215 235.948 59.2353L237.194 55.9655L237.197 55.9627ZM237.607 54.4835C237.643 54.3751 237.654 54.2666 237.654 53.527C237.654 52.7874 237.643 52.6678 237.607 52.5455C237.521 52.2897 237.33 52.1451 237.038 52.1451C236.747 52.1451 236.567 52.2897 236.484 52.5455C236.448 52.6651 236.436 52.7763 236.436 53.527C236.436 54.2777 236.448 54.3751 236.484 54.4835C236.57 54.7504 236.75 54.8839 237.038 54.8839C237.327 54.8839 237.521 54.7504 237.607 54.4835Z" fill="#110D0C"/>
<path d="M238.333 60.3726H222.245V61.646H238.333V60.3726Z" fill="#110D0C"/>
</g>
</g>
<defs>
<clipPath id="clip0_2841_3558">
<rect width="268" height="80" fill="white"/>
</clipPath>
<clipPath id="clip1_2841_3558">
<rect width="268" height="80" fill="white"/>
</clipPath>
</defs>
</svg>
