<svg width="100%" viewBox="0 0 212 64" fill="none" xmlns="http://www.w3.org/2000/svg">
<g clip-path="url(#clip0_2846_895)">
<path fill-rule="evenodd" clip-rule="evenodd" d="M62.6741 32.0001C62.6741 49.4103 48.7492 63.524 31.5742 63.524C14.3991 63.524 0.469852 49.4103 0.469852 32.0001C0.469852 14.5898 14.3947 0.476074 31.5742 0.476074C48.7536 0.476074 62.6741 14.5898 62.6741 32.0001Z" fill="#110D0C"/>
<path d="M23.5617 58.3699C23.6231 58.5034 23.5419 58.6613 23.4607 58.7458C23.3291 58.8771 23.1118 58.9038 22.9933 58.8326C22.8835 58.7703 22.8089 58.7169 22.7892 58.6102C22.7716 58.4923 22.8199 58.3877 22.8835 58.301C23.0306 58.1631 23.1776 58.1052 23.4146 58.1964C23.4915 58.2342 23.5354 58.3054 23.5617 58.3699Z" fill="#CBCED0"/>
<path d="M42.8587 54.8531C43.0847 54.8754 43.3634 54.9843 43.482 55.0533C43.5039 55.0755 43.5237 55.1156 43.4951 55.1401C43.3064 55.298 43.1198 55.4559 42.9662 55.6316C43.0452 55.6761 43.1681 55.6806 43.2559 55.6784C43.8002 55.7028 44.3335 55.7095 44.8777 55.7495C44.9392 55.7762 45.0226 55.7874 45.0511 55.8608C45.0248 55.9875 44.9392 55.9875 44.7943 55.9942C44.1645 56.0165 43.5763 56.1655 42.9289 56.1744C42.7424 56.1433 42.817 55.9052 42.7907 55.7762L42.7424 55.7962C42.073 56.3412 41.3598 56.8417 40.7606 57.4423L40.754 57.4868C40.9055 57.5157 41.0437 57.4112 41.1864 57.3622C41.6582 57.1287 42.1169 56.8573 42.6304 56.7705C42.7424 56.7705 42.8894 56.7594 42.9728 56.8417C43.054 56.9062 43.0913 57.0041 43.1045 57.0997C43.1045 57.3044 42.9311 57.4156 42.8126 57.5535C42.6261 57.7025 42.4044 57.8249 42.2552 58.0073C42.2244 58.0918 42.3276 58.1207 42.3715 58.1652C42.5295 58.2698 42.7819 58.2497 42.8345 58.4878C42.8784 58.9593 42.4439 59.1262 42.0357 59.3797C41.3795 59.789 40.6685 60.0026 39.874 59.9203C39.795 59.9047 39.7292 59.8646 39.7248 59.8001C39.7072 59.4865 39.9025 59.2351 40.133 59.0283C40.4951 58.728 40.9186 58.6323 41.3598 58.6012C41.4497 58.6012 41.5639 58.6257 41.6099 58.7102C41.6209 58.7814 41.577 58.8214 41.509 58.8214C41.1205 58.8503 40.7058 59.0505 40.4731 59.3842C40.4709 59.4086 40.4644 59.4376 40.4863 59.4509C40.6641 59.4909 40.8901 59.3441 41.081 59.2596C41.4454 59.0527 41.8404 58.8637 42.1432 58.5411C42.1827 58.5078 42.1827 58.4789 42.1762 58.4344C41.9984 58.1875 41.4256 58.2475 41.5507 57.7937C41.6187 57.6581 41.7702 57.5669 41.8777 57.449C41.7987 57.4423 41.6999 57.4801 41.6209 57.5157C41.092 57.7493 40.5631 57.9828 39.9881 58.0318C39.8608 58.0117 39.7226 57.9873 39.6809 57.8516C39.6458 57.6914 39.7533 57.5491 39.8169 57.4134C39.6633 57.4156 39.5163 57.5379 39.3583 57.5913C38.8842 57.8182 38.3904 57.9962 37.8659 58.0584C37.6684 58.0651 37.4095 58.094 37.3085 57.8694C37.2536 57.7604 37.3041 57.5824 37.3678 57.4779C37.2866 57.509 37.2339 57.5402 37.1812 57.5624C36.5448 57.8716 35.9281 58.1074 35.2104 58.203C34.9866 58.2297 34.732 58.2053 34.6398 57.9739C34.6091 57.7915 34.7189 57.6714 34.811 57.5468C35.0985 57.2643 35.5045 56.9307 35.7876 56.6371L35.6538 56.6882C35.2368 56.8395 34.8001 56.9351 34.3282 56.8951C34.2097 57.0864 34.0868 57.2755 33.9178 57.4401C33.4591 57.9472 32.8644 58.332 32.2038 58.2142C31.9844 58.1474 31.7781 57.9205 31.7912 57.6336C31.6947 57.6803 31.6837 57.6736 31.5476 57.7381C31.2514 57.8805 30.9639 58.0318 30.6588 58.1408C30.1979 58.3054 29.7042 58.5345 29.1818 58.3632C29.0567 58.2898 29.0721 58.1496 29.1094 58.034C29.2696 57.6692 29.5813 57.3845 29.8863 57.0975L29.8358 57.1064C28.969 57.5402 28.1504 58.0963 27.2703 58.4677C27.1211 58.5211 27.1123 58.5189 27.0421 58.4811C26.985 58.4499 26.9675 58.3988 26.9938 58.3031C27.1606 57.9116 27.5359 57.667 27.8343 57.3489C28.1767 56.9996 28.5651 56.686 28.9338 56.339C28.7824 56.339 28.6924 56.4302 28.5432 56.5058C28.2008 56.6993 28.0033 56.7994 27.707 56.9596C26.6953 57.5135 25.6858 58.0473 24.6697 58.5678C24.6039 58.5812 24.527 58.6101 24.4524 58.5634C24.3844 58.5256 24.3976 58.4544 24.4458 58.3966C24.6895 58.1964 24.9682 58.0629 25.2337 57.9161C27.5446 56.6415 29.8666 55.298 32.1226 53.8054C32.296 53.6364 32.4891 53.8032 32.6822 53.8521C32.7437 53.8677 32.8512 53.91 32.7876 53.9967C31.6661 54.971 30.4657 55.8496 29.4408 56.8662C29.4847 56.8951 29.522 56.8662 29.5791 56.8261C30.9463 55.9853 32.296 55.0244 33.6193 54.0835C33.7291 54.0056 33.7883 53.93 33.9244 53.9344C34.1 53.9678 34.2163 54.0434 34.3831 54.0879C34.5674 54.1435 34.4665 54.2169 34.4665 54.2169C33.198 55.2579 31.8746 56.3234 30.6215 57.4178C30.4547 57.5624 30.3472 57.6825 30.4284 57.7493C30.4876 57.8271 31.0648 57.578 31.3743 57.4623C31.6222 57.3511 31.9119 57.271 32.0568 57.0108C32.3552 56.6615 32.7832 56.3879 33.2199 56.3301C33.3757 56.3768 33.4965 56.4814 33.6369 56.5592C33.6786 56.5881 33.6852 56.6437 33.6567 56.6793C33.3099 56.9084 32.8381 57.0797 32.6493 57.4779C32.6164 57.5468 32.623 57.6269 32.6559 57.6936C32.6998 57.7715 32.8095 57.7671 32.8863 57.7648C33.2287 57.6536 33.5008 57.3533 33.7225 57.0842C33.7993 56.9796 33.8805 56.8729 33.9025 56.7327C33.7291 56.597 33.7466 56.3902 33.7664 56.2345C33.8059 56.121 33.8871 56.0521 34.0363 56.0298C34.1965 56.0076 34.348 56.1255 34.416 56.2634C34.4555 56.3501 34.4687 56.5281 34.4621 56.537C34.8703 56.6215 35.3553 56.4992 35.7064 56.3501C35.6735 56.2522 35.6669 56.0743 35.7898 55.9831C35.9061 55.883 36.0751 55.8697 36.2112 55.9364C36.2968 55.9653 36.3538 56.0543 36.3802 56.1455C36.3955 56.2367 36.3714 56.339 36.3165 56.4124C36.299 56.4502 36.22 56.4569 36.3824 56.5192C36.5075 56.5681 36.7313 56.6304 36.7467 56.686C36.762 56.7416 36.6918 56.7905 36.6918 56.7905C36.4087 57.0842 36.0378 57.36 35.7613 57.6558C35.735 57.6759 35.7503 57.7292 35.7767 57.7337C36.0576 57.7671 36.2639 57.6358 36.5294 57.5135C37.2383 57.182 37.9296 56.7283 38.577 56.2389C38.7416 56.1877 38.8755 56.2812 39.0159 56.3345C39.1015 56.3657 39.1783 56.4124 39.22 56.4435C39.2639 56.4791 39.1981 56.5325 39.1981 56.5325C38.8447 56.8906 38.4563 57.2065 38.1271 57.578C38.1095 57.6136 38.1117 57.6536 38.1622 57.6603C38.6297 57.6002 39.0444 57.3422 39.4746 57.1531C40.6268 56.6126 41.6999 55.8163 42.6985 54.9688C42.7599 54.9176 42.7885 54.8709 42.8609 54.862L42.8587 54.8531Z" fill="#CBCED0"/>
<path d="M40.1464 55.4806C40.1903 55.6052 40.1574 55.7298 40.0564 55.8009C39.8721 55.9144 39.6197 55.9322 39.4463 55.7943C39.3761 55.7053 39.3454 55.5941 39.3936 55.4895C39.4551 55.3427 39.6285 55.2671 39.7689 55.2471C39.9642 55.2515 40.0937 55.3116 40.1464 55.4829V55.4806Z" fill="#CBCED0"/>
<path d="M26.6054 56.3858C26.5659 56.3079 26.4738 56.2879 26.3926 56.2701C25.8768 56.2434 25.3633 56.219 24.8673 56.2323C24.7422 56.2345 24.6171 56.2746 24.6193 56.2145C24.7664 56.0588 24.9463 55.9431 25.0912 55.7963C25.1153 55.7741 25.1065 55.7363 25.089 55.7162C25.089 55.7162 24.5381 55.4315 24.4547 55.5383C24.1584 55.7518 22.5915 57.1065 21.56 57.6448C21.4591 57.6982 21.3515 57.7694 21.1694 57.8494L21.244 57.776C21.8585 57.1532 22.4576 56.5526 23.0919 56.0076C23.9521 55.6295 24.7773 55.109 25.5696 54.5106C25.7715 54.3571 26.1907 54.0124 26.1468 53.6698C26.0853 53.5408 25.9558 53.5008 25.8154 53.4985C25.4028 53.5475 25.0121 53.6987 24.6544 53.9012C24.3406 54.0769 24.3143 54.0991 24.0092 54.306C23.206 54.8243 22.5366 55.5138 21.8519 56.1589C20.68 56.6705 19.4817 57.0642 18.2791 57.4646C18.2088 57.4846 18.1737 57.5625 18.1957 57.6314C18.2198 57.7004 18.29 57.7182 18.3734 57.6982C19.1218 57.5158 19.8526 57.2533 20.5856 56.9975C20.8182 56.9174 21.0048 56.8685 21.233 56.7884C20.9653 57.1287 20.5242 57.6715 20.1708 57.9896C20.1708 57.8695 20.1335 57.6937 20.0348 57.5959C19.9579 57.5336 19.857 57.4891 19.7495 57.5047C19.6551 57.518 19.5871 57.5892 19.5256 57.667C19.3632 57.8917 19.282 58.252 19.4356 58.5079C19.5322 58.6591 19.6661 58.7459 19.9162 58.6992C20.3705 58.5991 20.827 58.3722 21.2791 58.1453C21.3713 58.1008 21.413 58.0763 21.5381 57.9896C21.4437 58.1075 21.4832 58.341 21.5073 58.4678C21.5842 58.6836 21.7926 58.7992 21.9814 58.8904C21.9814 58.8904 22.4137 59.0306 22.5542 58.8682C22.6354 58.6591 22.3369 58.7681 22.2733 58.6257C22.1196 58.3544 22.2645 58.2254 22.5191 57.9451C22.9448 57.4735 23.443 57.1065 23.95 56.7083L24.0026 56.6661C24.0092 56.7194 24.0312 56.7862 24.0509 56.8084C24.1124 56.8796 24.2177 56.8507 24.3077 56.8396C25.0538 56.7506 25.7825 56.5637 26.5418 56.5059C26.5901 56.477 26.6142 56.4369 26.6076 56.3813L26.6054 56.3858ZM24.3823 54.7575C24.6764 54.5106 24.9902 54.3104 25.3282 54.128C25.4313 54.0747 25.5564 53.999 25.6903 54.0079C25.6179 54.1414 25.495 54.217 25.3699 54.3216C24.9002 54.6508 24.4701 55.0156 23.8446 55.2269C23.9938 55.069 24.2089 54.9021 24.3823 54.7575Z" fill="#CBCED0"/>
<path d="M48.6656 52.2573L50.1557 53.2227L49.4666 51.5144L50.7549 50.3177L49.076 50.4645L48.3737 48.814L47.9611 50.5623L46.2822 50.7091L47.7526 51.6634L47.362 53.4674L48.6656 52.2573Z" fill="#CBCED0"/>
<path d="M53.5266 46.6831L55.2209 47.1948L54.095 45.7445L55.008 44.2363L53.4323 44.8458L52.3108 43.4556L52.3876 45.2506L50.8141 45.8601L52.4886 46.3673L52.6027 48.2091L53.5266 46.6831Z" fill="#CBCED0"/>
<path d="M56.6829 39.9742L58.4496 39.992L56.9726 38.9131L57.44 37.207L56.0925 38.2325L54.6353 37.2115L55.1971 38.9131L53.8496 39.9408L55.5966 39.9608L56.2089 41.7003L56.6829 39.9742Z" fill="#CBCED0"/>
<path d="M14.3989 52.2685L12.9088 53.2339L13.5979 51.5256L12.3096 50.3289L13.9885 50.4735L14.6886 48.8252L15.1034 50.5713L16.7823 50.7159L15.3119 51.6724L15.7047 53.4764L14.3989 52.2685Z" fill="#CBCED0"/>
<path d="M9.53589 46.6966L7.84164 47.2082L8.96748 45.7579L8.05452 44.2476L9.62806 44.857L10.7517 43.4668L10.6727 45.2619L12.2484 45.8714L10.5739 46.3807L10.462 48.2225L9.53589 46.6966Z" fill="#CBCED0"/>
<path d="M6.37513 39.9878L4.60846 40.0079L6.08544 38.929L5.61799 37.2207L6.96548 38.2484L8.42271 37.2252L7.86089 38.9268L9.20838 39.9545L7.46147 39.9745L6.85136 41.714L6.37513 39.9878Z" fill="#CBCED0"/>
<path d="M7.70508 32.3649C7.67655 32.3894 7.62827 32.4005 7.59096 32.3649L7.04011 31.8133C7.00938 31.7844 7.01158 31.7443 7.04011 31.711C7.29907 31.4196 7.55146 31.0214 7.57999 30.532C7.60852 30.0516 7.40442 29.7669 7.08181 29.7468C6.81406 29.7313 6.6363 29.8825 6.53096 30.4275L6.48268 30.67C6.30052 31.5975 5.83307 32.0936 5.03203 32.0446C4.19589 31.9935 3.67796 31.3217 3.73721 30.3252C3.77452 29.7157 3.9874 29.1574 4.30562 28.7881C4.33415 28.7481 4.36268 28.7436 4.40657 28.7815L4.99034 29.233C5.02326 29.2619 5.02765 29.2953 5.0057 29.3287C4.75771 29.6668 4.61725 29.9982 4.59311 30.3786C4.56897 30.7856 4.76429 31.0081 5.05179 31.0259C5.31295 31.0414 5.49071 30.8613 5.59605 30.3385L5.64433 30.0961C5.82868 29.1552 6.28516 28.6791 7.10814 28.7303C7.93112 28.7815 8.50392 29.4354 8.4315 30.6277C8.3898 31.3462 8.06719 32.0268 7.70288 32.3649H7.70508Z" fill="#CBCED0"/>
<path d="M6.37755 27.5158C5.69283 27.3489 5.47117 27.2666 5.21001 27.0954C4.54285 26.6816 4.31681 26.0165 4.50335 25.2313C4.6855 24.4728 5.18149 24.0079 5.85962 23.9078C5.89693 23.8967 5.92546 23.9167 5.92985 23.959L6.07689 24.7575C6.08786 24.802 6.06592 24.8309 6.02202 24.8421C5.706 24.8977 5.44045 25.0556 5.35047 25.4315C5.26707 25.7807 5.39656 26.0499 5.67747 26.2256C5.8267 26.319 5.97813 26.3769 6.61018 26.5304C7.24223 26.6838 7.40244 26.7039 7.57801 26.6905C7.9072 26.6661 8.14422 26.4859 8.22761 26.1366C8.31759 25.7607 8.153 25.496 7.89623 25.3003C7.86111 25.2714 7.85672 25.2358 7.88525 25.2002L8.37685 24.5596C8.39879 24.524 8.4361 24.5173 8.46244 24.5462C9.02207 24.9488 9.25469 25.5939 9.07254 26.3524C8.8838 27.1376 8.38343 27.6225 7.60434 27.6826C7.2949 27.7115 7.06008 27.6826 6.37536 27.5135L6.37755 27.5158Z" fill="#CBCED0"/>
<path d="M5.55248 22.0947C5.51517 22.077 5.502 22.0414 5.51956 22.0058L5.8685 21.2183C5.88386 21.1805 5.92117 21.1672 5.95629 21.185L7.51446 21.8946C7.5386 21.9057 7.55616 21.899 7.56713 21.8745L8.17724 20.4999C8.18821 20.4754 8.18163 20.4576 8.15749 20.4465L6.59931 19.7369C6.562 19.7213 6.54883 19.6835 6.56639 19.6479L6.91533 18.8605C6.9307 18.8227 6.968 18.8093 7.00312 18.8271L11.0368 20.6667C11.0741 20.6823 11.0873 20.7201 11.0697 20.7557L10.7208 21.5431C10.7032 21.5809 10.6681 21.5943 10.633 21.5765L9.03094 20.8469C9.0068 20.8357 8.98925 20.8424 8.97827 20.8669L8.36817 22.2416C8.3572 22.266 8.36378 22.2838 8.38792 22.2949L9.98999 23.0245C10.0273 23.0423 10.0405 23.0779 10.0229 23.1135L9.67397 23.9009C9.6586 23.9388 9.6213 23.9521 9.58618 23.9343L5.55248 22.0947Z" fill="#CBCED0"/>
<path d="M13.5823 17.0387C13.5538 17.0765 13.5165 17.081 13.477 17.0677L10.7403 15.971L10.7315 15.9822L12.5092 18.3622C12.5333 18.3978 12.5377 18.4356 12.5092 18.4735L12.1053 19.014C12.0812 19.0474 12.0439 19.0518 12.0044 19.0385L7.76658 17.2856C7.73147 17.2656 7.7183 17.2389 7.74464 17.2011L8.26696 16.5027C8.29549 16.4648 8.3328 16.4604 8.3701 16.4782L11.0475 17.6994L11.0563 17.6883L9.24356 15.3082C9.21942 15.2726 9.21503 15.2348 9.24356 15.1969L9.5947 14.7254C9.61884 14.692 9.65615 14.6876 9.69785 14.7009L12.4653 15.802L12.474 15.7909L10.5735 13.5309C10.5406 13.4975 10.5406 13.4619 10.5691 13.4241L11.087 12.7301C11.1156 12.6923 11.1441 12.6967 11.1726 12.7279L13.9905 16.3825C14.019 16.4115 14.019 16.4559 13.9905 16.4938L13.5867 17.0343L13.5823 17.0387Z" fill="#CBCED0"/>
<path d="M12.4058 11.6156C12.3795 11.5845 12.3817 11.5467 12.4124 11.52L14.6312 9.59367C14.6619 9.56698 14.6992 9.56921 14.7255 9.60035L15.193 10.152C15.2193 10.1831 15.2171 10.221 15.1864 10.2476L13.6941 11.5422C13.6743 11.56 13.6721 11.5801 13.6897 11.6001L14.2778 12.2963C14.2954 12.3163 14.3151 12.3185 14.3349 12.3008L15.5771 11.2219C15.6078 11.1952 15.6451 11.1975 15.6714 11.2286L16.1345 11.7758C16.1608 11.8069 16.1586 11.8448 16.1279 11.8714L14.8857 12.9503C14.866 12.9681 14.8638 12.9881 14.8814 13.0081L15.4958 13.7355C15.5134 13.7555 15.5332 13.7577 15.5529 13.7399L17.0452 12.4453C17.076 12.4186 17.1133 12.4209 17.1396 12.452L17.6071 13.0037C17.6334 13.0348 17.6312 13.0726 17.6005 13.0993L15.3817 15.0256C15.351 15.0523 15.3137 15.0501 15.2874 15.0189L12.4102 11.6134L12.4058 11.6156Z" fill="#CBCED0"/>
<path d="M16.0362 8.69952C16.0142 8.66615 16.023 8.62834 16.0559 8.6061L16.7692 8.13675C16.8021 8.11451 16.8394 8.1234 16.8613 8.15677L19.2688 11.9182C19.2908 11.9516 19.282 11.9894 19.2491 12.0116L18.5358 12.481C18.5029 12.5032 18.4656 12.4943 18.4437 12.461L16.0362 8.69952Z" fill="#CBCED0"/>
<path d="M20.1552 11.3955C20.1179 11.4133 20.0827 11.4 20.0652 11.3622L19.7536 10.6837C19.7426 10.6592 19.7404 10.637 19.7426 10.6125L20.3461 7.20478L20.3395 7.19143L18.6672 7.97887C18.6299 7.99666 18.5948 7.98331 18.5772 7.9455L18.2634 7.26261C18.2459 7.2248 18.259 7.18921 18.2963 7.17141L20.9408 5.92576C20.9781 5.90796 21.0133 5.92131 21.0308 5.95912L21.3425 6.63756C21.3534 6.66203 21.3556 6.68427 21.3534 6.70874L20.7433 10.1187L20.7499 10.1321L22.4946 9.31127C22.5319 9.29348 22.5671 9.30682 22.5824 9.34464L22.8962 10.0275C22.9138 10.0653 22.9006 10.1009 22.8633 10.1187L20.153 11.3955H20.1552Z" fill="#CBCED0"/>
<path d="M22.5582 5.36724C22.5472 5.3272 22.5648 5.29384 22.6043 5.28271L25.4134 4.46859C25.4529 4.45747 25.4858 4.47526 25.4968 4.5153L25.6943 5.21376C25.7053 5.2538 25.6877 5.28716 25.6482 5.29828L23.7608 5.84548C23.7345 5.85216 23.7257 5.86995 23.7323 5.89664L23.9803 6.7775C23.9869 6.80419 24.0044 6.81309 24.0308 6.80642L25.6021 6.35042C25.6416 6.3393 25.6745 6.35709 25.6855 6.39713L25.8808 7.08891C25.8918 7.12895 25.8743 7.16232 25.8348 7.17344L24.2634 7.62944C24.2371 7.63611 24.2283 7.65391 24.2349 7.6806L24.496 8.6015C24.5026 8.62819 24.5202 8.63709 24.5465 8.63041L26.4339 8.08321C26.4734 8.07209 26.5063 8.08989 26.5173 8.12993L26.7148 8.82838C26.7258 8.86842 26.7082 8.90179 26.6687 8.91291L23.8596 9.72704C23.8201 9.73816 23.7872 9.72036 23.7762 9.68032L22.5582 5.36947V5.36724Z" fill="#CBCED0"/>
<path d="M30.156 8.45707C30.0967 8.46374 30.0748 8.44372 30.0485 8.39923L29.1048 6.79323L28.4991 6.85328C28.4727 6.85551 28.4596 6.87108 28.464 6.89777L28.6242 8.53937C28.6285 8.57941 28.6044 8.61055 28.5649 8.61277L27.7178 8.6973C27.6783 8.70175 27.6476 8.67728 27.6454 8.63724L27.213 4.17735C27.2086 4.13731 27.2328 4.10617 27.2723 4.10394L29.0784 3.92377C30.0046 3.83035 30.6761 4.35752 30.7573 5.19612C30.8144 5.78336 30.5532 6.28162 30.0748 6.55299L31.1436 8.27467C31.1677 8.31248 31.1524 8.35474 31.1041 8.36142L30.1582 8.45484L30.156 8.45707ZM29.7763 5.29621C29.7434 4.95144 29.4823 4.75347 29.1092 4.78906L28.3081 4.86913C28.2818 4.87136 28.2686 4.88693 28.273 4.91362L28.3762 5.97465C28.3784 6.00134 28.3937 6.01469 28.4201 6.01024L29.2211 5.93016C29.5942 5.89235 29.8136 5.64544 29.7785 5.29399L29.7763 5.29621Z" fill="#CBCED0"/>
<path d="M33.7882 7.9145C33.7663 7.88336 33.7619 7.83442 33.8014 7.79883L34.4005 7.3028C34.4334 7.27388 34.4729 7.28055 34.5015 7.31392C34.7582 7.60531 35.1225 7.90338 35.5988 7.98568C36.0684 8.06576 36.3691 7.89226 36.4239 7.56972C36.47 7.3028 36.3384 7.10705 35.816 6.94022L35.5834 6.86682C34.6924 6.5821 34.2579 6.05936 34.3917 5.25636C34.5322 4.41999 35.2476 3.97067 36.2177 4.1375C36.8124 4.23982 37.3369 4.51564 37.6639 4.87599C37.699 4.90936 37.7012 4.93827 37.6595 4.97831L37.1548 5.51884C37.1218 5.54776 37.0889 5.54776 37.0582 5.52329C36.7531 5.23634 36.4437 5.05839 36.0728 4.99388C35.6756 4.92493 35.4364 5.09843 35.3881 5.38538C35.3442 5.64563 35.5 5.84582 36.0048 6.0082L36.2374 6.08161C37.1416 6.36855 37.5586 6.88239 37.4203 7.70541C37.282 8.52843 36.5776 9.03559 35.4144 8.8354C34.7143 8.71528 34.0801 8.31712 33.7882 7.9145Z" fill="#CBCED0"/>
<path d="M39.5796 5.02717C39.5928 4.98935 39.6279 4.97378 39.6652 4.98713L40.4641 5.28742C40.5014 5.30077 40.5167 5.33636 40.5036 5.37417L39.821 7.2471L41.9279 5.90135C41.9762 5.86798 42.0047 5.86576 42.0552 5.88355L42.9659 6.22611C43.0032 6.23946 43.0054 6.29284 42.9615 6.31953L41.0676 7.47621L41.5592 10.5347C41.568 10.5881 41.5372 10.6126 41.4933 10.597L40.5694 10.25C40.5189 10.23 40.5058 10.2122 40.497 10.1566L40.1941 7.97225L39.3755 8.47496L38.9739 9.57603C38.9608 9.61385 38.9256 9.62942 38.8883 9.61607L38.0895 9.31578C38.0522 9.30243 38.0368 9.26684 38.05 9.22903L39.584 5.02494L39.5796 5.02717Z" fill="#CBCED0"/>
<path d="M44.3794 7.05562C44.3991 7.02003 44.4342 7.00891 44.4694 7.02893L45.2177 7.44044C45.2528 7.46046 45.2638 7.49605 45.2441 7.53164L43.135 11.4732C43.1153 11.5088 43.0802 11.52 43.045 11.4999L42.2967 11.0884C42.2616 11.0684 42.2506 11.0328 42.2703 10.9972L44.3794 7.05562Z" fill="#CBCED0"/>
<path d="M44.241 11.498C44.2344 11.4602 44.252 11.4135 44.3025 11.4002L45.0574 11.2289C45.0991 11.2178 45.132 11.2422 45.143 11.2845C45.2439 11.6626 45.4371 12.0942 45.8277 12.3833C46.2118 12.6681 46.5585 12.648 46.7495 12.3856C46.9075 12.1676 46.8767 11.934 46.4839 11.547L46.3083 11.3757C45.639 10.7173 45.4788 10.0522 45.955 9.39376C46.451 8.70865 47.2871 8.63303 48.0816 9.22249C48.5688 9.58506 48.9155 10.07 49.0472 10.5393C49.0626 10.586 49.0538 10.6105 48.9989 10.6305L48.3076 10.8841C48.2659 10.8952 48.2352 10.8797 48.2199 10.8441C48.0728 10.4481 47.8753 10.1501 47.5724 9.92539C47.2476 9.68516 46.9579 9.72965 46.7868 9.96543C46.6331 10.179 46.6836 10.4281 47.0611 10.8018L47.2367 10.9731C47.917 11.6404 48.064 12.2877 47.5768 12.9617C47.0896 13.6357 46.2359 13.7669 45.2856 13.0596C44.7129 12.6347 44.3222 11.9896 44.2388 11.498H44.241Z" fill="#CBCED0"/>
<path d="M48.9791 12.9969C49.4905 12.5054 49.677 12.363 49.9601 12.2295C50.6646 11.887 51.3384 12.0538 51.887 12.641C52.4181 13.2083 52.5322 13.8823 52.2469 14.514C52.236 14.5518 52.203 14.5651 52.1657 14.5451L51.4239 14.2382C51.3822 14.2226 51.3691 14.1892 51.3844 14.1447C51.5117 13.8444 51.5227 13.533 51.2615 13.2528C51.0179 12.9925 50.7239 12.9547 50.4276 13.1015C50.2696 13.1793 50.1379 13.2772 49.6683 13.7288C49.1964 14.1825 49.0933 14.3093 49.0099 14.465C48.8497 14.7587 48.8716 15.0567 49.1152 15.317C49.3786 15.5973 49.6858 15.6017 49.9865 15.4883C50.0304 15.4749 50.0633 15.4883 50.0743 15.535L50.3398 16.3002C50.3574 16.338 50.342 16.3713 50.3047 16.3802C49.6683 16.636 49.0077 16.4848 48.4766 15.9198C47.9279 15.3326 47.7984 14.643 48.1715 13.9468C48.3164 13.6665 48.4678 13.4841 48.9791 12.9925V12.9969Z" fill="#CBCED0"/>
<path d="M53.9218 15.2456C53.9547 15.2234 53.9921 15.2323 54.014 15.2657L54.4749 15.9908C54.4968 16.0242 54.488 16.062 54.4551 16.0842L53.0176 17.0229C52.9957 17.0385 52.9913 17.0563 53.0067 17.0785L53.8121 18.3464C53.8275 18.3687 53.845 18.3731 53.867 18.3598L55.3044 17.4233C55.3374 17.4011 55.3747 17.41 55.3966 17.4433L55.8575 18.1685C55.8794 18.2018 55.8706 18.2397 55.8377 18.2619L52.1178 20.6887C52.0849 20.711 52.0476 20.7021 52.0257 20.6687L51.5648 19.9435C51.5429 19.9102 51.5516 19.8724 51.5846 19.8501L53.0615 18.887C53.0835 18.8714 53.0879 18.8536 53.0725 18.8313L52.2671 17.5634C52.2517 17.5412 52.2342 17.5368 52.2122 17.5523L50.7352 18.5155C50.7023 18.5377 50.665 18.5288 50.6431 18.4955L50.1822 17.7703C50.1602 17.7369 50.169 17.6991 50.2019 17.6769L53.9218 15.2501V15.2456Z" fill="#CBCED0"/>
<path d="M54.0925 21.0357L56.7085 19.9791C56.7458 19.9636 56.7809 19.9791 56.7962 20.0169L57.1123 20.8177C57.1276 20.8555 57.1123 20.8911 57.075 20.9067L54.4348 21.9722C53.9301 22.1768 53.7567 22.575 53.9279 23.011C54.0969 23.4403 54.4941 23.6093 54.9989 23.4047L57.639 22.3392C57.6763 22.3236 57.7114 22.3392 57.7268 22.377L58.0428 23.1778C58.0581 23.2156 58.0428 23.2512 58.0055 23.2668L55.3895 24.3234C54.3383 24.7482 53.4955 24.2989 53.1203 23.338C52.7406 22.3726 53.0456 21.4606 54.0991 21.0357H54.0925Z" fill="#CBCED0"/>
<path d="M58.5036 25.0952C58.5431 25.0863 58.5738 25.1086 58.5826 25.1486L58.7494 25.9939C58.7582 26.0339 58.7362 26.065 58.6967 26.0739L55.1941 26.7857C55.1678 26.7902 55.1568 26.808 55.1634 26.8347L55.5584 28.8322C55.5672 28.8722 55.5453 28.9034 55.5058 28.9123L54.7772 29.0613C54.7377 29.0702 54.7069 29.0479 54.6981 29.0079L54.1144 26.0584C54.1056 26.0183 54.1275 25.9872 54.1671 25.9783L58.5036 25.0974V25.0952Z" fill="#CBCED0"/>
<path d="M59.2676 29.7622C59.3071 29.7622 59.3356 29.7867 59.3356 29.8289L59.4124 32.7896C59.4124 32.8296 59.3883 32.8585 59.3466 32.8585L58.629 32.8786C58.5895 32.8786 58.5609 32.8541 58.5609 32.8118L58.5083 30.8232C58.5083 30.7965 58.4929 30.7832 58.4666 30.7832L57.5624 30.8077C57.5361 30.8077 57.5229 30.8232 57.5229 30.8499L57.5668 32.5071C57.5668 32.5471 57.5426 32.5761 57.5009 32.5761L56.7899 32.5961C56.7504 32.5961 56.7218 32.5716 56.7218 32.5293L56.678 30.8722C56.678 30.8455 56.6626 30.8321 56.6363 30.8321L55.6926 30.8588C55.6662 30.8588 55.6531 30.8744 55.6531 30.9011L55.7057 32.8897C55.7057 32.9297 55.6816 32.9586 55.6399 32.9586L54.9223 32.9787C54.8828 32.9787 54.8542 32.9542 54.8542 32.9119L54.7752 29.9513C54.7752 29.9112 54.7994 29.8823 54.8411 29.8823L59.2632 29.7622H59.2676Z" fill="#CBCED0"/>
<path fill-rule="evenodd" clip-rule="evenodd" d="M51.3276 32C51.3276 43.0574 42.4811 52.0239 31.5739 52.0239C20.6666 52.0239 11.8136 43.0574 11.8136 32C11.8136 20.9426 20.6579 11.9761 31.5739 11.9761C42.4899 11.9761 51.3276 20.9403 51.3276 32Z" fill="#D20A11"/>
<path fill-rule="evenodd" clip-rule="evenodd" d="M62.1011 32C62.1011 49.0633 48.4067 62.9434 31.5739 62.9434C14.7412 62.9434 1.04244 49.061 1.04244 32C1.04244 14.939 14.739 1.05658 31.5739 1.05658C48.4089 1.05658 62.1011 14.9367 62.1011 31.9978V32ZM31.5739 0C14.1641 0 0 14.354 0 32C0 49.646 14.1641 64 31.5739 64C48.9838 64 63.1435 49.6438 63.1435 32C63.1435 14.3562 48.9817 0 31.5739 0Z" fill="#CBCED0"/>
<path fill-rule="evenodd" clip-rule="evenodd" d="M51.0292 31.9998C51.0292 42.8748 42.3012 51.7212 31.5739 51.7212C20.8466 51.7212 12.112 42.8748 12.112 31.9998C12.112 21.1248 20.8422 12.2784 31.5739 12.2784C42.3056 12.2784 51.0292 21.1248 51.0292 31.9998ZM31.5739 11.6733C20.513 11.6733 11.5151 20.7911 11.5151 31.9998C11.5151 43.2084 20.513 52.3262 31.5739 52.3262C42.6348 52.3262 51.6261 43.2084 51.6261 31.9998C51.6261 20.7911 42.6304 11.6733 31.5739 11.6733Z" fill="#CBCED0"/>
<path fill-rule="evenodd" clip-rule="evenodd" d="M45.6192 27.2532H36.2548V17.7617H26.8881V27.2532H17.5237V36.7468H26.8881V46.2383H36.2548V36.7468H45.6192V27.2532Z" fill="white"/>
<path fill-rule="evenodd" clip-rule="evenodd" d="M18.8494 21.8079C18.8494 21.8079 17.785 22.5552 18.4938 24.6462C19.2312 26.4791 20.9847 27.4244 22.1281 28.8458C23.0916 28.6523 23.5459 28.501 23.7807 27.2509C21.5619 26.9618 24.0572 24.0656 24.4917 26.35C24.7704 26.3968 24.9877 26.508 25.2028 26.6192C25.2291 27.4978 27.2965 27.7826 26.8904 29.1394C26.5283 30.345 24.9614 29.0171 24.1384 29.1394C23.9365 29.1683 23.3527 29.4953 23.2145 29.5554C22.6285 29.8179 22.4683 29.7445 22.2598 30.3206C21.9438 31.197 22.8436 31.9933 23.2145 32.4582C23.4581 32.7629 23.5173 33.1255 23.9606 33.8173C24.7222 35.0051 25.8787 35.3499 27.0682 35.708C27.1253 34.9762 26.6512 34.7693 26.8904 34.0887C26.1311 34.0175 26.1443 33.1656 25.7361 32.7385C25.1567 32.4849 24.4369 32.3759 24.3162 31.6574C24.4742 31.5774 24.4632 31.326 24.6717 31.2971C26.4493 31.8643 27.472 33.1033 29.6996 33.2256C30.0134 33.4725 30.5796 33.6616 30.9724 33.8173C32.4867 34.4112 35.05 34.5046 36.1232 35.3477C36.8474 35.9149 36.8145 36.9559 37.4553 37.6877C38.0347 38.2839 38.9608 38.2794 39.4963 39.1269C39.9748 39.8854 39.6434 41.14 39.7641 42.4568C39.9155 44.1073 39.9111 45.8846 39.0508 46.5764C39.8892 46.5074 40.8307 46.6231 41.6273 46.5964C41.4232 45.5643 41.6822 44.8213 42.0706 44.1651C41.2345 42.8127 41.6032 40.2747 41.8051 38.4952C41.6163 37.7033 40.6551 37.363 40.5629 36.6067C40.5015 36.1195 40.9623 35.7859 40.8285 35.1675C41.4781 34.8227 42.5666 34.211 42.1606 33.368C41.4056 33.3769 40.4598 33.3013 39.7641 33.0076C38.4561 31.3638 36.6477 30.0959 35.4078 28.3831C34.0932 27.4355 32.7194 26.6793 32.3068 24.8197C31.6242 23.8632 30.1977 23.6585 29.6425 22.5708C29.0017 22.4107 28.6834 21.9235 27.9548 21.8501C27.731 21.6877 27.731 21.2985 27.4215 21.2206C26.8136 21.2073 26.2957 21.1027 25.8239 20.9492C25.3059 21.0649 24.3864 20.8781 24.7222 20.5555C24.9987 20.2908 26.1882 19.9171 26.7105 19.9305C28.9929 19.9905 31.8196 19.6813 34.7538 23.336C34.6704 22.969 34.7977 22.3017 34.2556 22.1793C34.5058 21.6344 34.1546 21.2473 33.6674 21.254C33.742 20.58 32.9608 19.9905 32.3945 20.2018C32.456 19.5879 31.6155 19.0763 31.0097 19.3855C30.8956 18.627 30.0858 18.4713 29.6271 18.8138C29.3506 18.4646 28.5562 18.1777 28.1545 18.5313C27.9285 18.0842 27.5642 18.2021 27.2526 18.2244C30.0419 17.7862 32.7347 18.5202 34.9842 20.4132C34.8328 20.0684 34.9776 19.3366 34.2753 19.3744C34.4114 18.9184 33.9681 18.5603 33.5204 18.5825C33.3865 17.8952 32.6206 17.5215 32.0697 17.7973C31.9315 17.2434 31.0909 16.8408 30.5577 17.2701C30.3557 16.8252 29.592 16.5005 29.0916 16.9809C28.7954 16.516 27.8846 16.3381 27.5554 16.8008C27.2591 16.3848 26.5415 15.9844 25.8634 16.6717C25.5166 16.3492 24.5356 16.1735 24.2547 17.0143C23.5546 16.6384 23.2364 17.1277 23.0521 17.5014C22.6219 17.259 21.8714 17.4614 21.856 18.1732C21.3205 17.9552 20.8926 18.3445 20.9079 19.0429C19.646 18.7382 19.6241 19.8571 19.7689 20.4888C18.5092 20.402 18.845 21.8012 18.845 21.8012L18.8494 21.8079Z" fill="#000319"/>
<path fill-rule="evenodd" clip-rule="evenodd" d="M41.0062 41.0199C41.1005 40.3214 41.3815 39.1892 41.1839 38.3217C41.0654 37.8012 40.4641 37.5677 40.2951 36.9715C40.0603 36.1374 40.4114 35.1075 39.9396 34.5425C40.6199 34.5714 41.2849 34.587 41.4495 34.0932C38.6075 33.6883 37.6769 31.3216 36.0332 29.6844C35.4626 29.115 34.7471 28.7168 34.1699 28.1563C33.0726 27.0864 32.3155 25.8696 30.9724 25.1867C31.0294 25.0043 31.3872 25.1267 31.4157 24.9154C30.7902 24.1346 29.7895 23.2715 28.6636 23.296C28.6154 22.9779 28.9775 23.0736 28.9314 22.7555C28.3432 22.1616 27.0396 21.9792 25.9116 22.2149C25.916 21.799 26.4164 21.888 26.3549 21.4053C25.5451 21.3296 24.6826 21.2696 23.9408 21.3986C23.616 21.3118 23.3615 21.145 23.6753 20.8269C24.2942 20.1997 25.1983 19.6703 26.3198 19.6213C27.3008 19.5791 27.5181 19.5613 28.2884 19.6458C28.8392 19.7058 30.7024 19.9149 31.8656 20.5711C32.9036 21.1561 33.2811 21.5143 34.0185 22.2016C34.0185 22.2016 34.3236 21.8346 34.0514 21.5988C33.7815 21.363 33.3645 21.4942 33.3645 21.2585C33.3645 21.0227 33.2789 20.3398 32.6688 20.4688C32.3265 20.5422 32.0499 20.3976 32.0499 20.1641C32.0499 19.9305 31.6988 19.4345 31.2643 19.7281C31.0053 19.9038 30.6037 19.4011 30.5269 19.2054C30.4501 19.0096 30.1209 18.8606 29.7719 19.0964C29.423 19.3321 29.2694 18.9651 29.153 18.8072C29.0367 18.6493 28.4881 18.6359 28.2554 18.8339C28.0228 19.0296 27.8824 18.4691 27.0638 18.3979C26.311 18.3334 25.7316 18.4424 24.9964 18.6515C25.4068 18.3223 26.6841 17.9641 27.0945 17.8885C28.0711 17.7083 30.1889 17.9174 31.0865 18.1221C32.3067 18.3979 32.3879 18.6181 34.0032 19.4345C34.0032 19.4345 34.069 19.0608 33.8364 18.9429C33.6037 18.825 33.2328 18.6715 33.2328 18.6715C33.2328 18.6715 32.7742 17.9241 32.3089 18.042C31.8436 18.1599 31.8436 17.9241 31.6505 17.7284C31.4574 17.5326 31.2248 17.2968 30.9526 17.4147C30.6805 17.5326 30.2569 17.4147 30.1384 17.2568C30.0221 17.0989 29.6029 16.9142 29.2474 17.2168C29.0806 17.3591 28.8743 17.2257 28.7053 17.061C28.4793 16.8386 28.1633 16.7074 27.6607 17.0989C27.1581 17.4926 27.4281 16.981 27.0791 16.8253C26.7302 16.6673 26.3044 16.7074 26.0345 17.0989C25.7646 17.4926 25.6856 16.9432 25.4156 16.8253C25.1435 16.7074 24.6409 16.7852 24.6409 17.0989C24.6409 17.4125 24.2547 17.4525 24.0988 17.2946C23.943 17.1367 23.5568 17.2946 23.48 17.6861C23.4032 18.0776 22.9554 17.8529 22.7821 17.764C22.4046 17.5727 22.0469 18.0776 22.1632 18.3134C22.2795 18.5492 21.8538 18.5892 21.7374 18.4713C21.6211 18.3534 21.3117 18.4713 21.3512 18.8628C21.3907 19.2565 21.1954 19.4901 20.9627 19.3722C20.7301 19.2543 20.0717 19.4901 20.1507 20.1574C20.2275 20.8247 20.2275 21.0205 19.9181 21.0205C19.6087 21.0205 19.06 20.9871 19.1434 21.492C19.2465 22.1171 18.6474 22.6665 18.6606 23.3939C18.6738 24.1212 19.3629 25.2713 19.556 25.507C19.5582 25.5093 19.5626 25.5115 19.5648 25.5159C19.725 25.7829 19.9488 26.0542 20.3504 26.3323C20.6357 26.1098 20.2319 25.4803 20.5809 25.4559C21.2568 26.2922 20.9452 27.7737 22.4551 28.3698C22.9686 28.2208 23.0301 27.9361 23.1574 27.6158C21.8998 26.3745 22.7031 25.9497 22.5955 24.6418C23.0696 24.486 23.1639 24.6529 23.5129 24.9176C24.3073 24.8842 24.6804 25.6627 25.2905 26.1788C25.7163 26.5392 26.4054 26.6726 26.8004 27.1687C27.1033 27.549 27.7397 29.0305 27.5993 29.5977C27.2547 30.9968 25.0996 29.5487 23.9584 29.6867C23.5941 29.7311 22.6614 29.9869 22.6263 30.6765C22.6087 31.0502 23.4756 31.9489 23.6906 32.4271C24.3556 33.9197 25.0974 34.6693 26.4449 35.0852C26.5129 34.7471 26.3374 34.6559 26.3549 34.3668C26.164 34.2311 25.8041 34.2667 25.7338 34.0064C25.7689 32.7074 23.717 32.6874 23.9277 31.4995C23.9628 31.3016 24.0352 31.0213 24.3117 30.9479C25.7338 30.5631 28.5056 33.5215 29.728 32.5672C30.1823 31.9177 29.8707 30.4919 30.6147 30.1382C30.8539 31.137 30.3381 31.9266 30.5269 32.8386C32.2123 33.7973 33.9834 34.0642 36.031 34.6381C36.0924 33.7951 35.4077 33.2323 35.3199 32.8386C37.2095 33.5682 36.5906 36.0795 37.8064 37.3363C38.2278 37.7745 38.941 37.7767 39.4041 38.146C40.5014 39.0224 40.1678 41.0088 40.3193 43.1153C40.3917 44.1162 40.4926 45.3374 40.113 46.0648H41.0018C41.0457 45.4486 41.1993 44.9437 41.4451 44.5344C41.3354 43.3288 40.8416 42.2033 41.0018 41.0243L41.0062 41.0199ZM21.4741 23.4673C21.6518 22.9735 22.4463 22.6732 22.0952 21.9391C21.2766 21.9792 21.5026 23.078 20.853 23.2893C20.8442 23.187 20.8245 23.0847 20.7916 22.9824C20.6248 22.4708 21.2261 21.8346 21.6123 21.6766C22.0008 21.5187 22.2554 21.2206 22.3958 21.6566C22.5275 22.0615 22.5582 22.3662 22.5429 22.5953C22.2049 23.4384 21.6716 23.6363 21.4763 23.4717L21.4741 23.4673Z" fill="#CBCED0"/>
<path d="M75.4573 33.0611C75.2993 33.0611 75.1917 32.9543 75.1917 32.7919V17.5794C75.1917 17.4726 75.1391 17.4192 75.0337 17.4192H72.2795C72.1215 17.4192 72.0139 17.3124 72.0139 17.1501V15.0836C72.0139 14.9234 72.1193 14.8145 72.2795 14.8145H80.9351C81.0931 14.8145 81.2006 14.9212 81.2006 15.0836V17.1501C81.2006 17.3102 81.0953 17.4192 80.9351 17.4192H78.183C78.0777 17.4192 78.025 17.4726 78.025 17.5794V32.7919C78.025 32.9521 77.9197 33.0611 77.7594 33.0611H75.4573Z" fill="white"/>
<path d="M82.9738 15.0836C82.9738 14.9234 83.0792 14.8145 83.2394 14.8145H85.5415C85.6995 14.8145 85.8071 14.9212 85.8071 15.0836V22.275C85.8071 22.3818 85.8597 22.4352 85.9651 22.4352H89.009C89.1144 22.4352 89.167 22.3818 89.167 22.275V15.0836C89.167 14.9234 89.2724 14.8145 89.4326 14.8145H91.7347C91.8927 14.8145 92.0003 14.9212 92.0003 15.0836V32.7919C92.0003 32.9521 91.8949 33.0611 91.7347 33.0611H89.4326C89.2746 33.0611 89.167 32.9543 89.167 32.7919V25.1979C89.167 25.0911 89.1144 25.0377 89.009 25.0377H85.9651C85.8597 25.0377 85.8071 25.0911 85.8071 25.1979V32.7919C85.8071 32.9521 85.7017 33.0611 85.5415 33.0611H83.2394C83.0814 33.0611 82.9738 32.9543 82.9738 32.7919V15.0836Z" fill="white"/>
<path d="M94.8075 15.0836C94.8075 14.9234 94.9129 14.8145 95.0731 14.8145H102.458C102.616 14.8145 102.724 14.9212 102.724 15.0836V17.1501C102.724 17.3102 102.618 17.4192 102.458 17.4192H97.7988C97.6935 17.4192 97.6408 17.4726 97.6408 17.5794V22.3818C97.6408 22.4886 97.6935 22.542 97.7988 22.542H101.824C101.982 22.542 102.089 22.6487 102.089 22.8111V24.8776C102.089 25.0377 101.984 25.1467 101.824 25.1467H97.7988C97.6935 25.1467 97.6408 25.2001 97.6408 25.3069V30.2984C97.6408 30.4052 97.6935 30.4586 97.7988 30.4586H102.458C102.616 30.4586 102.724 30.5653 102.724 30.7277V32.7942C102.724 32.9543 102.618 33.0633 102.458 33.0633H95.0731C94.9151 33.0633 94.8075 32.9565 94.8075 32.7942V15.0858V15.0836Z" fill="white"/>
<path d="M111.723 33.0611C111.565 33.0611 111.484 33.0077 111.431 32.8742L109.235 25.6027H107.885C107.78 25.6027 107.727 25.6561 107.727 25.7629V32.7919C107.727 32.9521 107.621 33.0611 107.461 33.0611H105.159C105.001 33.0611 104.894 32.9543 104.894 32.7919V15.0836C104.894 14.9234 104.999 14.8145 105.159 14.8145H108.787C111.991 14.8145 113.922 16.2358 113.922 20.2353C113.922 22.622 113.128 24.1257 111.778 24.9043L114.319 32.7919C114.372 32.9254 114.319 33.0611 114.188 33.0611H111.725H111.723ZM111.087 20.2353C111.087 18.0887 110.398 17.417 108.811 17.417H107.885C107.78 17.417 107.727 17.4704 107.727 17.5771V22.889C107.727 22.9957 107.78 23.0491 107.885 23.0491H108.811C110.4 23.0491 111.087 22.4063 111.087 20.2308V20.2353Z" fill="#D20A11"/>
<path d="M116.435 15.0836C116.435 14.9234 116.54 14.8145 116.7 14.8145H124.085C124.243 14.8145 124.351 14.9212 124.351 15.0836V17.1501C124.351 17.3102 124.246 17.4192 124.085 17.4192H119.426C119.321 17.4192 119.268 17.4726 119.268 17.5794V22.3818C119.268 22.4886 119.321 22.542 119.426 22.542H123.451C123.609 22.542 123.717 22.6487 123.717 22.8111V24.8776C123.717 25.0377 123.611 25.1467 123.451 25.1467H119.426C119.321 25.1467 119.268 25.2001 119.268 25.3069V30.2984C119.268 30.4052 119.321 30.4586 119.426 30.4586H124.085C124.243 30.4586 124.351 30.5653 124.351 30.7277V32.7942C124.351 32.9543 124.246 33.0633 124.085 33.0633H116.7C116.542 33.0633 116.435 32.9565 116.435 32.7942V15.0858V15.0836Z" fill="#D20A11"/>
<path d="M126.522 15.0836C126.522 14.9234 126.627 14.8145 126.787 14.8145H130.944C133.301 14.8145 134.677 15.7798 135.311 17.7395C135.629 18.7316 135.761 19.9661 135.761 23.9367C135.761 27.9072 135.629 29.1417 135.311 30.1338C134.675 32.0935 133.299 33.0589 130.944 33.0589H126.787C126.629 33.0589 126.522 32.9521 126.522 32.7897V15.0814V15.0836ZM129.513 30.4586H130.652C131.657 30.4586 132.241 30.0559 132.557 29.1439C132.77 28.4722 132.875 27.5869 132.875 23.9389C132.875 20.2909 132.77 19.4034 132.557 18.7338C132.239 17.8218 131.657 17.4192 130.652 17.4192H129.513C129.408 17.4192 129.355 17.4726 129.355 17.5794V30.2984C129.355 30.4052 129.408 30.4586 129.513 30.4586Z" fill="#D20A11"/>
<path d="M138.248 15.0836C138.248 14.9234 138.353 14.8145 138.513 14.8145H140.816C140.974 14.8145 141.081 14.9212 141.081 15.0836V30.2962C141.081 30.4029 141.134 30.4563 141.239 30.4563H145.898C146.056 30.4563 146.164 30.5631 146.164 30.7255V32.7919C146.164 32.9521 146.058 33.0611 145.898 33.0611H138.513C138.355 33.0611 138.248 32.9543 138.248 32.7919V15.0836Z" fill="white"/>
<path d="M148.095 15.0836C148.095 14.9234 148.2 14.8145 148.36 14.8145H155.745C155.903 14.8145 156.011 14.9212 156.011 15.0836V17.1501C156.011 17.3102 155.905 17.4192 155.745 17.4192H151.086C150.98 17.4192 150.928 17.4726 150.928 17.5794V22.3818C150.928 22.4886 150.98 22.542 151.086 22.542H155.109C155.267 22.542 155.374 22.6487 155.374 22.8111V24.8776C155.374 25.0377 155.269 25.1467 155.109 25.1467H151.086C150.98 25.1467 150.928 25.2001 150.928 25.3069V30.2984C150.928 30.4052 150.98 30.4586 151.086 30.4586H155.745C155.903 30.4586 156.011 30.5653 156.011 30.7277V32.7942C156.011 32.9543 155.905 33.0633 155.745 33.0633H148.36C148.202 33.0633 148.095 32.9565 148.095 32.7942V15.0858V15.0836Z" fill="white"/>
<path d="M157.863 23.9364C157.863 18.8648 157.942 18.222 158.207 17.4168C158.789 15.6195 160.246 14.5718 162.469 14.5718C165.063 14.5718 166.652 15.9665 166.944 18.8381C166.97 18.9983 166.865 19.134 166.731 19.1607L164.587 19.5366C164.429 19.5633 164.321 19.4832 164.295 19.3208C164.163 17.8995 163.553 17.1743 162.496 17.1743C161.727 17.1743 161.119 17.5769 160.933 18.1953C160.775 18.7047 160.749 18.9204 160.749 23.9364C160.749 28.9524 160.775 29.1682 160.933 29.6776C161.117 30.2937 161.78 30.6963 162.522 30.6963C163.264 30.6963 163.951 30.2937 164.137 29.6776C164.269 29.2216 164.321 28.9524 164.321 25.5714C164.321 25.4646 164.269 25.4112 164.163 25.4112H162.761C162.603 25.4112 162.496 25.3044 162.496 25.1421V23.1557C162.496 22.9955 162.601 22.8865 162.761 22.8865H166.784C166.942 22.8865 167.049 22.9933 167.049 23.1557V23.9609C167.049 29.0058 166.97 29.6487 166.705 30.4539C166.123 32.2512 164.666 33.2989 162.469 33.2989C160.272 33.2989 158.789 32.2534 158.207 30.4539C157.942 29.6487 157.863 29.0058 157.863 23.9342V23.9364Z" fill="white"/>
<path d="M169.459 15.0836C169.459 14.9234 169.564 14.8145 169.725 14.8145H177.11C177.268 14.8145 177.375 14.9212 177.375 15.0836V17.1501C177.375 17.3102 177.27 17.4192 177.11 17.4192H172.45C172.345 17.4192 172.292 17.4726 172.292 17.5794V22.3818C172.292 22.4886 172.345 22.542 172.45 22.542H176.473C176.631 22.542 176.739 22.6487 176.739 22.8111V24.8776C176.739 25.0377 176.633 25.1467 176.473 25.1467H172.45C172.345 25.1467 172.292 25.2001 172.292 25.3069V30.2984C172.292 30.4052 172.345 30.4586 172.45 30.4586H177.11C177.268 30.4586 177.375 30.5653 177.375 30.7277V32.7942C177.375 32.9543 177.27 33.0633 177.11 33.0633H169.725C169.567 33.0633 169.459 32.9565 169.459 32.7942V15.0858V15.0836Z" fill="white"/>
<path d="M179.544 15.0836C179.544 14.9234 179.649 14.8145 179.809 14.8145H182.616C182.829 14.8145 182.935 14.8945 182.987 15.0836L186.323 27.6936H186.455V15.0836C186.455 14.9234 186.56 14.8145 186.72 14.8145H188.68C188.838 14.8145 188.946 14.9212 188.946 15.0836V32.7919C188.946 32.9521 188.84 33.0611 188.68 33.0611H186.06C185.847 33.0611 185.741 32.981 185.689 32.7919L182.195 20.1819H182.037V32.7919C182.037 32.9521 181.932 33.0611 181.771 33.0611H179.812C179.654 33.0611 179.546 32.9543 179.546 32.7919V15.0836H179.544Z" fill="white"/>
<path d="M191.748 15.0836C191.748 14.9234 191.853 14.8145 192.013 14.8145H196.17C198.525 14.8145 199.903 15.7798 200.537 17.7395C200.856 18.7316 200.987 19.9661 200.987 23.9367C200.987 27.9072 200.856 29.1417 200.537 30.1338C199.903 32.0935 198.525 33.0589 196.17 33.0589H192.013C191.855 33.0589 191.748 32.9521 191.748 32.7897V15.0814V15.0836ZM194.739 30.4586H195.878C196.883 30.4586 197.467 30.0559 197.785 29.1439C197.996 28.4722 198.104 27.5869 198.104 23.9389C198.104 20.2909 197.998 19.4034 197.785 18.7338C197.467 17.8218 196.886 17.4192 195.878 17.4192H194.739C194.634 17.4192 194.581 17.4726 194.581 17.5794V30.2984C194.581 30.4052 194.634 30.4586 194.739 30.4586Z" fill="white"/>
<path d="M207.393 33.3013C204.481 33.3013 202.973 31.7176 202.892 28.5256C202.892 28.3654 202.945 28.2564 203.103 28.2297L205.326 27.8538C205.512 27.8271 205.618 27.9339 205.618 28.0963C205.697 30.0292 206.252 30.7789 207.47 30.7789C208.609 30.7789 209.164 30.1627 209.164 28.1763C209.164 26.19 208.793 25.5738 207.391 25.011L206.305 24.5817C203.816 23.5897 203.074 22.275 203.074 19.4301C203.074 16.2914 204.476 14.5742 207.441 14.5742C210.406 14.5742 211.703 16.1847 211.861 19.0274C211.861 19.1876 211.782 19.2699 211.622 19.3233L209.504 19.6458C209.346 19.6725 209.212 19.5924 209.212 19.4301C209.16 17.9286 208.684 17.0967 207.518 17.0967C206.353 17.0967 205.877 17.7951 205.877 19.2966C205.877 20.9871 206.195 21.4965 207.624 22.0593L208.71 22.4886C211.067 23.4273 211.993 24.7152 211.993 27.8271C211.993 31.4217 210.801 33.3013 207.387 33.3013H207.393Z" fill="white"/>
<path d="M98.29 49.4278C96.9513 49.4278 96.2578 48.7004 96.2205 47.2323C96.2205 47.1589 96.2446 47.1099 96.317 47.0966L97.3397 46.9231C97.4253 46.912 97.4736 46.9609 97.4736 47.0343C97.5109 47.9219 97.7655 48.2666 98.3251 48.2666C98.8474 48.2666 99.1042 47.9841 99.1042 47.0699C99.1042 46.1557 98.933 45.8732 98.29 45.6152L97.7918 45.4172C96.6484 44.9612 96.3082 44.3562 96.3082 43.0482C96.3082 41.6046 96.9535 40.8149 98.3163 40.8149C99.6792 40.8149 100.276 41.5557 100.349 42.8614C100.349 42.9348 100.311 42.9726 100.239 42.9971L99.2644 43.1439C99.192 43.1572 99.1305 43.1194 99.1305 43.046C99.1064 42.3542 98.8869 41.9738 98.3514 41.9738C97.8159 41.9738 97.5965 42.2942 97.5965 42.9859C97.5965 43.7623 97.7435 43.998 98.3997 44.2561L98.8979 44.454C99.9798 44.8856 100.408 45.4773 100.408 46.9075C100.408 48.5603 99.8613 49.4233 98.29 49.4233V49.4278Z" fill="white"/>
<path d="M101.527 49.3163C101.455 49.3163 101.406 49.2674 101.406 49.194V41.055C101.406 40.9816 101.455 40.9326 101.527 40.9326H103.195C104.668 40.9326 105.543 41.5977 105.543 43.5107C105.543 45.4237 104.668 46.0887 103.195 46.0887H102.78C102.732 46.0887 102.708 46.1132 102.708 46.1621V49.1962C102.708 49.2696 102.659 49.3186 102.587 49.3186H101.529L101.527 49.3163ZM104.242 43.5062C104.242 42.4452 103.937 42.1249 103.195 42.1249H102.78C102.732 42.1249 102.708 42.1494 102.708 42.1983V44.8119C102.708 44.8609 102.732 44.8853 102.78 44.8853H103.195C103.937 44.8853 104.242 44.565 104.242 43.504V43.5062Z" fill="white"/>
<path d="M106.588 48.1198C106.467 47.7505 106.43 47.4547 106.43 45.1235C106.43 42.7924 106.467 42.4965 106.588 42.1273C106.855 41.302 107.525 40.8193 108.547 40.8193C109.57 40.8193 110.226 41.2998 110.494 42.1273C110.615 42.4965 110.652 42.7924 110.652 45.1235C110.652 47.4547 110.615 47.7505 110.494 48.1198C110.226 48.945 109.557 49.4277 108.547 49.4277C107.538 49.4277 106.855 48.9472 106.588 48.1198ZM109.241 47.7616C109.313 47.5281 109.326 47.428 109.326 45.1213C109.326 42.8146 109.313 42.7167 109.241 42.4832C109.155 42.2007 108.887 42.0138 108.547 42.0138C108.207 42.0138 107.926 42.1985 107.841 42.4832C107.768 42.7167 107.755 42.8168 107.755 45.1213C107.755 47.4258 107.768 47.5259 107.841 47.7616C107.926 48.0441 108.194 48.231 108.547 48.231C108.901 48.231 109.155 48.0464 109.241 47.7616Z" fill="white"/>
<path d="M114.936 49.3163C114.864 49.3163 114.827 49.2919 114.802 49.2296L113.793 45.8885H113.172C113.124 45.8885 113.099 45.913 113.099 45.962V49.194C113.099 49.2674 113.051 49.3163 112.979 49.3163H111.921C111.849 49.3163 111.8 49.2674 111.8 49.194V41.055C111.8 40.9816 111.849 40.9326 111.921 40.9326H113.589C115.061 40.9326 115.95 41.5866 115.95 43.4239C115.95 44.5206 115.586 45.2123 114.965 45.5705L116.132 49.1962C116.157 49.2585 116.132 49.3186 116.071 49.3186H114.939L114.936 49.3163ZM114.644 43.4195C114.644 42.4319 114.328 42.1249 113.598 42.1249H113.172C113.124 42.1249 113.099 42.1494 113.099 42.1983V44.6407C113.099 44.6896 113.124 44.7141 113.172 44.7141H113.598C114.328 44.7141 114.644 44.4182 114.644 43.4195Z" fill="white"/>
<path d="M118.136 49.3163C118.064 49.3163 118.015 49.2674 118.015 49.194V42.2005C118.015 42.1516 117.991 42.1271 117.943 42.1271H116.677C116.604 42.1271 116.556 42.0782 116.556 42.0048V41.055C116.556 40.9816 116.604 40.9326 116.677 40.9326H120.655C120.728 40.9326 120.776 40.9816 120.776 41.055V42.0048C120.776 42.0782 120.728 42.1271 120.655 42.1271H119.389C119.341 42.1271 119.317 42.1516 119.317 42.2005V49.194C119.317 49.2674 119.268 49.3163 119.196 49.3163H118.138H118.136Z" fill="white"/>
<path d="M125.63 49.4278C124.291 49.4278 123.598 48.7004 123.561 47.2323C123.561 47.1589 123.585 47.1099 123.657 47.0966L124.68 46.9231C124.766 46.912 124.814 46.9609 124.814 47.0343C124.851 47.9219 125.106 48.2666 125.665 48.2666C126.188 48.2666 126.444 47.9841 126.444 47.0699C126.444 46.1557 126.273 45.8732 125.63 45.6152L125.132 45.4172C123.989 44.9612 123.648 44.3562 123.648 43.0482C123.648 41.6046 124.294 40.8149 125.657 40.8149C127.019 40.8149 127.616 41.5557 127.689 42.8614C127.689 42.9348 127.651 42.9726 127.579 42.9971L126.605 43.1439C126.532 43.1572 126.471 43.1194 126.471 43.046C126.447 42.3542 126.227 41.9738 125.692 41.9738C125.156 41.9738 124.937 42.2942 124.937 42.9859C124.937 43.7623 125.084 43.998 125.74 44.2561L126.238 44.454C127.32 44.8856 127.748 45.4773 127.748 46.9075C127.748 48.5603 127.202 49.4233 125.63 49.4233V49.4278Z" fill="white"/>
<path d="M128.867 49.3163C128.795 49.3163 128.747 49.2674 128.747 49.194V41.055C128.747 40.9816 128.795 40.9326 128.867 40.9326H130.535C132.008 40.9326 132.883 41.5977 132.883 43.5107C132.883 45.4237 132.008 46.0887 130.535 46.0887H130.123C130.074 46.0887 130.05 46.1132 130.05 46.1621V49.1962C130.05 49.2696 130.002 49.3186 129.929 49.3186H128.872L128.867 49.3163ZM131.58 43.5062C131.58 42.4452 131.275 42.1249 130.533 42.1249H130.12C130.072 42.1249 130.048 42.1494 130.048 42.1983V44.8119C130.048 44.8609 130.072 44.8853 130.12 44.8853H130.533C131.275 44.8853 131.58 44.565 131.58 43.504V43.5062Z" fill="white"/>
<path d="M133.918 41.053C133.918 40.9796 133.966 40.9307 134.038 40.9307H135.096C135.169 40.9307 135.217 40.9796 135.217 41.053V49.192C135.217 49.2654 135.169 49.3144 135.096 49.3144H134.038C133.966 49.3144 133.918 49.2654 133.918 49.192V41.053Z" fill="white"/>
<path d="M139.648 49.3163C139.575 49.3163 139.538 49.2919 139.514 49.2296L138.504 45.8885H137.883C137.835 45.8885 137.811 45.913 137.811 45.962V49.194C137.811 49.2674 137.762 49.3163 137.69 49.3163H136.632C136.56 49.3163 136.512 49.2674 136.512 49.194V41.055C136.512 40.9816 136.56 40.9326 136.632 40.9326H138.3C139.773 40.9326 140.662 41.5866 140.662 43.4239C140.662 44.5206 140.297 45.2123 139.676 45.5705L140.844 49.1962C140.868 49.2585 140.844 49.3186 140.782 49.3186H139.65L139.648 49.3163ZM139.356 43.4195C139.356 42.4319 139.04 42.1249 138.309 42.1249H137.883C137.835 42.1249 137.811 42.1494 137.811 42.1983V44.6407C137.811 44.6896 137.835 44.7141 137.883 44.7141H138.309C139.04 44.7141 139.356 44.4182 139.356 43.4195Z" fill="white"/>
<path d="M141.814 41.053C141.814 40.9796 141.862 40.9307 141.934 40.9307H142.992C143.065 40.9307 143.113 40.9796 143.113 41.053V49.192C143.113 49.2654 143.065 49.3144 142.992 49.3144H141.934C141.862 49.3144 141.814 49.2654 141.814 49.192V41.053Z" fill="white"/>
<path d="M145.514 49.3163C145.441 49.3163 145.393 49.2674 145.393 49.194V42.2005C145.393 42.1516 145.369 42.1271 145.321 42.1271H144.054C143.982 42.1271 143.934 42.0782 143.934 42.0048V41.055C143.934 40.9816 143.982 40.9326 144.054 40.9326H148.033C148.106 40.9326 148.154 40.9816 148.154 41.055V42.0048C148.154 42.0782 148.106 42.1271 148.033 42.1271H146.767C146.719 42.1271 146.695 42.1516 146.695 42.2005V49.194C146.695 49.2674 146.646 49.3163 146.574 49.3163H145.516H145.514Z" fill="white"/>
<path d="M153.008 49.4278C151.669 49.4278 150.976 48.7004 150.939 47.2323C150.939 47.1589 150.963 47.1099 151.035 47.0966L152.058 46.9231C152.143 46.912 152.192 46.9609 152.192 47.0343C152.229 47.9219 152.484 48.2666 153.043 48.2666C153.566 48.2666 153.822 47.9841 153.822 47.0699C153.822 46.1557 153.651 45.8732 153.008 45.6152L152.51 45.4172C151.366 44.9612 151.026 44.3562 151.026 43.0482C151.026 41.6046 151.672 40.8149 153.034 40.8149C154.397 40.8149 154.994 41.5557 155.067 42.8614C155.067 42.9348 155.029 42.9726 154.957 42.9971L153.982 43.1439C153.91 43.1572 153.849 43.1194 153.849 43.046C153.824 42.3542 153.605 41.9738 153.07 41.9738C152.534 41.9738 152.315 42.2942 152.315 42.9859C152.315 43.7623 152.459 43.998 153.118 44.2561L153.616 44.454C154.698 44.8856 155.124 45.4773 155.124 46.9075C155.124 48.5603 154.577 49.4233 153.006 49.4233L153.008 49.4278Z" fill="white"/>
<path d="M156.122 41.053C156.122 40.9796 156.171 40.9307 156.243 40.9307H157.301C157.373 40.9307 157.422 40.9796 157.422 41.053V49.192C157.422 49.2654 157.373 49.3144 157.301 49.3144H156.243C156.171 49.3144 156.122 49.2654 156.122 49.192V41.053Z" fill="white"/>
<path d="M158.714 41.053C158.714 40.9796 158.763 40.9307 158.835 40.9307H160.125C160.222 40.9307 160.27 40.9685 160.294 41.053L161.828 46.8498H161.89V41.053C161.89 40.9796 161.938 40.9307 162.011 40.9307H162.91C162.983 40.9307 163.031 40.9796 163.031 41.053V49.192C163.031 49.2654 162.983 49.3144 162.91 49.3144H161.706C161.609 49.3144 161.561 49.2766 161.534 49.192L159.928 43.3953H159.856V49.192C159.856 49.2654 159.807 49.3144 159.735 49.3144H158.835C158.763 49.3144 158.714 49.2654 158.714 49.192V41.053Z" fill="white"/>
<path d="M164.176 45.1216C164.176 42.7904 164.225 42.4456 164.334 42.1009C164.589 41.3001 165.199 40.8174 166.209 40.8174C167.389 40.8174 168.131 41.4335 168.204 42.8282C168.215 42.9016 168.19 42.9639 168.118 42.975L167.133 43.1485C167.06 43.1619 166.999 43.1241 166.999 43.0373C166.961 42.3211 166.718 42.0141 166.244 42.0141C165.879 42.0141 165.684 42.1743 165.588 42.4834C165.526 42.6814 165.502 42.8527 165.502 45.1216C165.502 47.3904 165.526 47.5639 165.588 47.7619C165.684 48.0711 165.879 48.2313 166.244 48.2313C166.718 48.2313 166.961 47.9221 166.999 47.208C166.999 47.1213 167.06 47.0857 167.133 47.0968L168.118 47.2703C168.19 47.2837 168.215 47.3437 168.204 47.4194C168.131 48.8118 167.389 49.4302 166.209 49.4302C165.199 49.4302 164.591 48.9497 164.334 48.1467C164.225 47.802 164.176 47.4572 164.176 45.126V45.1216Z" fill="white"/>
<path d="M169.034 41.053C169.034 40.9796 169.082 40.9307 169.154 40.9307H172.549C172.622 40.9307 172.67 40.9796 172.67 41.053V42.0028C172.67 42.0762 172.622 42.1252 172.549 42.1252H170.407C170.359 42.1252 170.335 42.1496 170.335 42.1986V44.4052C170.335 44.4541 170.359 44.4786 170.407 44.4786H172.258C172.33 44.4786 172.378 44.5275 172.378 44.6009V45.5507C172.378 45.6241 172.33 45.6731 172.258 45.6731H170.407C170.359 45.6731 170.335 45.6975 170.335 45.7465V48.0398C170.335 48.0887 170.359 48.1132 170.407 48.1132H172.549C172.622 48.1132 172.67 48.1621 172.67 48.2355V49.1854C172.67 49.2588 172.622 49.3077 172.549 49.3077H169.154C169.082 49.3077 169.034 49.2588 169.034 49.1854V41.0463V41.053Z" fill="white"/>
<path d="M175.786 42.0471H175.767L174.955 42.6277C174.906 42.6655 174.849 42.6477 174.849 42.5699V41.7468C174.849 41.6779 174.869 41.6401 174.946 41.5822L175.778 40.9616C175.835 40.9238 175.883 40.9038 175.949 40.9038H176.666C176.724 40.9038 176.763 40.9416 176.763 41.0017V47.3968C176.763 47.4546 176.726 47.4947 176.666 47.4947H175.883C175.826 47.4947 175.786 47.4568 175.786 47.3968V42.0471Z" fill="white"/>
<path d="M180.022 44.7699L180.002 44.7499C179.954 44.7788 179.84 44.8077 179.678 44.8077C179.057 44.8077 178.712 44.4874 178.539 43.9269C178.482 43.7422 178.442 43.4709 178.442 42.8213C178.442 42.1718 178.471 41.9294 178.528 41.7447C178.71 41.1642 179.177 40.8149 179.895 40.8149C180.613 40.8149 181.08 41.1642 181.271 41.7447C181.328 41.9294 181.357 42.1429 181.357 42.8213C181.357 43.7333 181.28 44.0803 181.052 44.692L180.029 47.3969C180 47.4659 179.961 47.4948 179.895 47.4948H179.101C179.032 47.4948 179.004 47.457 179.032 47.388L180.018 44.7721L180.022 44.7699ZM180.347 43.5865C180.376 43.4998 180.384 43.413 180.384 42.8213C180.384 42.2296 180.376 42.134 180.347 42.0361C180.279 41.8315 180.128 41.7158 179.897 41.7158C179.667 41.7158 179.524 41.8315 179.458 42.0361C179.43 42.1318 179.421 42.2208 179.421 42.8213C179.421 43.4219 179.43 43.4998 179.458 43.5865C179.526 43.8001 179.669 43.9068 179.897 43.9068C180.125 43.9068 180.279 43.8001 180.347 43.5865Z" fill="white"/>
<path d="M182.27 46.7073C182.27 46.6384 182.278 46.6006 182.318 46.5138L183.933 43.5665C184.115 43.2462 184.181 43.0037 184.181 42.481C184.181 42.2185 184.172 42.1318 184.144 42.0361C184.076 41.8315 183.933 41.7158 183.694 41.7158C183.455 41.7158 183.321 41.8315 183.255 42.0361C183.226 42.1318 183.218 42.2208 183.218 42.6367C183.218 42.7146 183.169 42.7435 183.103 42.7346L182.357 42.6656C182.3 42.6567 182.272 42.6167 182.272 42.55C182.272 42.1429 182.291 41.9205 182.349 41.7358C182.539 41.1553 182.998 40.8149 183.716 40.8149C184.433 40.8149 184.883 41.1441 185.074 41.7269C185.131 41.9116 185.16 42.1429 185.16 42.4832C185.16 43.2106 185.035 43.5687 184.758 44.0625L183.334 46.5828V46.5917H185.065C185.122 46.5917 185.162 46.6295 185.162 46.6895V47.3969C185.162 47.4547 185.125 47.4948 185.065 47.4948H182.368C182.311 47.4948 182.272 47.457 182.272 47.3969V46.7096L182.27 46.7073Z" fill="white"/>
<path d="M187.633 44.7699L187.613 44.7499C187.565 44.7788 187.451 44.8077 187.289 44.8077C186.668 44.8077 186.323 44.4874 186.152 43.9269C186.095 43.7422 186.055 43.4709 186.055 42.8213C186.055 42.1718 186.084 41.9294 186.141 41.7447C186.323 41.1642 186.79 40.8149 187.508 40.8149C188.226 40.8149 188.693 41.1642 188.884 41.7447C188.941 41.9294 188.97 42.1429 188.97 42.8213C188.97 43.7333 188.893 44.0803 188.665 44.692L187.642 47.3969C187.613 47.4659 187.574 47.4948 187.508 47.4948H186.714C186.646 47.4948 186.617 47.457 186.646 47.388L187.631 44.7721L187.633 44.7699ZM187.958 43.5865C187.986 43.4998 187.995 43.413 187.995 42.8213C187.995 42.2296 187.986 42.134 187.958 42.0361C187.89 41.8315 187.738 41.7158 187.508 41.7158C187.278 41.7158 187.135 41.8315 187.069 42.0361C187.041 42.1318 187.032 42.2208 187.032 42.8213C187.032 43.4219 187.041 43.4998 187.069 43.5865C187.137 43.8001 187.28 43.9068 187.508 43.9068C187.736 43.9068 187.89 43.8001 187.958 43.5865Z" fill="white"/>
<path d="M188.532 48.2979H175.806V49.3166H188.532V48.2979Z" fill="white"/>
</g>
<defs>
<clipPath id="clip0_2846_895">
<rect width="212" height="64" fill="white"/>
</clipPath>
</defs>
</svg>
