<svg width="100%" viewBox="0 0 1401 266" fill="none" xmlns="http://www.w3.org/2000/svg">
<path d="M35.176 200.575V51.6152C35.176 22.6072 33.608 15.1592 15.968 13.5912L3.424 12.4152C0.288 10.0632 0.680001 4.18324 3.816 2.61523C24.984 0.655234 51.64 -0.520774 88.096 -0.520774C112.792 -0.520774 136.312 1.43922 153.952 10.4552C170.808 18.6872 183.744 34.3672 183.744 59.4552C183.744 87.6792 167.28 102.183 143.76 113.159C143.76 117.079 146.896 118.255 151.208 119.039C172.376 122.959 203.736 142.559 203.736 184.503C203.736 229.975 170.024 260.551 99.464 260.551C88.096 260.551 68.888 259.375 52.424 259.375C35.176 259.375 21.848 260.159 7.344 260.551C4.992 259.375 4.208 253.103 6.56 250.751L13.616 249.575C34.392 246.047 35.176 241.735 35.176 200.575ZM67.32 136.679V194.695C67.32 208.807 68.104 228.799 75.552 237.423C83 246.439 94.76 248.399 106.52 248.399C141.408 248.399 168.064 232.719 168.064 193.519C168.064 162.551 152.384 126.487 90.056 126.487C68.888 126.487 67.32 128.839 67.32 136.679ZM67.32 24.1752V103.751C67.32 114.727 67.712 115.511 87.704 114.727C127.688 113.159 149.248 101.399 149.248 64.5512C149.248 26.1352 120.632 11.6312 90.84 11.6312C82.216 11.6312 76.336 12.4152 72.808 13.9832C68.888 15.1592 67.32 17.1192 67.32 24.1752ZM274.48 200.575V59.4552C274.48 18.6872 273.696 12.8072 250.568 10.0632L244.296 9.27924C241.944 7.71124 242.728 0.655234 245.08 -0.520774C261.936 0.263239 275.264 0.655234 291.336 0.655234H365.032C390.12 0.655234 413.248 0.655234 417.952 -0.520774C420.304 6.14323 422.656 34.3672 424.224 51.6152C422.656 53.9672 416.384 54.7512 414.424 52.3992C408.544 33.9752 405.016 20.2552 384.632 15.1592C376.4 13.1992 363.856 12.8072 346.608 12.8072H318.384C306.624 12.8072 306.624 13.5912 306.624 28.4872V106.887C306.624 117.863 307.8 117.863 319.56 117.863H342.296C358.76 117.863 370.912 117.079 375.616 115.511C380.32 113.943 383.064 111.591 385.024 101.791L388.16 85.7192C390.12 83.3672 396.784 83.3672 398.352 86.1112C398.352 95.5192 396.784 110.807 396.784 125.703C396.784 139.815 398.352 154.711 398.352 163.335C396.784 166.079 390.12 166.079 388.16 163.727L384.632 148.439C383.064 141.383 380.32 135.503 372.48 133.543C366.992 131.975 357.584 131.583 342.296 131.583H319.56C307.8 131.583 306.624 131.975 306.624 142.167V197.439C306.624 218.215 307.8 231.543 314.072 238.207C318.776 242.911 327.008 247.223 361.504 247.223C391.688 247.223 403.056 245.655 411.68 241.343C418.736 237.423 429.32 223.703 439.512 203.319C442.256 201.359 447.744 202.535 449.312 206.063C446.568 219.783 436.768 249.967 431.672 260.551C396.392 259.767 361.504 259.375 326.616 259.375H291.336C274.48 259.375 261.152 259.767 238.024 260.551C235.672 259.375 234.888 253.103 237.24 250.751L250.176 249.575C272.52 247.615 274.48 241.735 274.48 200.575ZM631.978 221.743L614.73 168.431C611.986 159.807 610.418 158.631 598.658 158.631H539.466C529.666 158.631 527.314 159.807 524.57 168.039L510.85 209.199C504.97 226.839 502.226 237.423 502.226 241.735C502.226 246.439 504.186 248.791 513.594 249.575L526.53 250.751C529.274 252.711 529.274 258.983 525.746 260.551C515.554 259.767 503.402 259.767 484.978 259.375C472.042 259.375 457.93 260.159 447.346 260.551C444.994 258.983 444.21 252.711 446.562 250.751L459.498 249.575C468.906 248.791 477.53 244.479 483.018 230.367C490.074 212.335 501.05 186.855 517.514 142.951L557.498 37.1112C562.986 22.9992 565.338 15.5512 564.162 9.27924C573.57 6.53523 580.234 -0.520774 584.546 -5.61678C586.898 -5.61678 589.642 -4.83277 590.426 -2.08878C595.522 15.1592 601.794 33.1912 607.674 50.4392L661.378 208.023C672.746 241.735 677.842 247.615 694.698 249.575L705.282 250.751C708.026 252.711 707.242 258.983 705.282 260.551C689.21 259.767 675.49 259.375 657.85 259.375C639.034 259.375 624.138 260.159 612.77 260.551C609.634 258.983 609.242 252.711 611.986 250.751L623.354 249.575C631.586 248.791 637.074 246.439 637.074 242.519C637.074 238.207 635.114 231.151 631.978 221.743ZM561.81 65.3352L537.114 133.543C533.978 142.559 534.37 142.951 545.346 142.951H593.562C604.93 142.951 605.714 141.383 602.186 130.799L581.018 66.9032C577.882 57.4952 574.354 46.9112 572.002 42.2072H571.218C570.042 44.1672 566.122 53.5752 561.81 65.3352ZM818.074 26.1352V200.575C818.074 241.735 818.858 247.615 841.594 249.575L854.138 250.751C856.49 252.319 855.706 259.375 853.354 260.551C831.01 259.767 817.682 259.375 802.002 259.375C786.322 259.375 772.602 259.767 747.514 260.551C745.162 259.375 744.378 252.711 747.514 250.751L761.626 249.575C783.97 247.615 785.93 241.735 785.93 200.575V25.3512C785.93 13.1992 785.93 12.8072 774.17 12.8072H752.61C735.754 12.8072 714.194 13.5912 704.394 22.6072C694.986 31.2312 691.066 39.8552 686.754 49.6552C683.618 52.0072 678.13 50.0472 676.562 46.9112C682.834 29.2712 688.714 4.18324 691.458 -11.4968C692.634 -12.2808 697.73 -12.6728 698.906 -11.4968C701.258 1.04723 714.194 0.655234 732.226 0.655234H890.986C912.154 0.655234 915.682 -0.128779 921.562 -10.3208C923.522 -11.1048 927.834 -10.7128 928.618 -9.14478C924.306 6.92722 921.562 38.6792 922.738 50.4392C921.17 53.5752 914.506 53.5752 912.546 51.2232C911.37 41.4232 908.626 26.9192 902.746 22.6072C893.73 15.9432 878.834 12.8072 857.274 12.8072H829.442C817.682 12.8072 818.074 13.1992 818.074 26.1352ZM1171.72 144.127V99.0472C1171.72 74.7432 1170.93 29.6632 1164.27 17.9032C1161.53 13.1992 1154.47 10.4552 1144.67 9.67123L1134.87 8.88722C1132.52 6.14323 1133.3 1.04723 1135.65 -0.520774C1150.55 0.263239 1165.05 0.655234 1180.34 0.655234C1196.81 0.655234 1207.39 0.263239 1221.5 -0.520774C1224.64 1.43922 1224.25 6.53523 1222.29 8.88722L1212.88 9.67123C1203.08 10.4552 1195.63 13.9832 1193.28 19.0792C1187.79 32.0152 1187.79 77.0952 1187.79 99.0472V143.343C1187.79 177.447 1182.3 213.511 1160.35 237.031C1143.49 255.455 1114.49 265.647 1085.48 265.647C1058.43 265.647 1031.38 260.551 1012.17 244.087C991.399 226.839 981.599 198.223 981.599 151.575V59.0632C981.599 18.2952 980.815 11.6312 958.079 9.67123L948.279 8.88722C945.927 7.31924 946.711 0.655234 949.063 -0.520774C968.663 0.263239 981.991 0.655234 997.671 0.655234C1013.74 0.655234 1026.68 0.263239 1045.89 -0.520774C1048.24 0.655234 1049.02 7.31924 1046.67 8.88722L1037.26 9.67123C1014.53 11.6312 1013.74 18.2952 1013.74 59.0632V143.735C1013.74 206.847 1033.34 248.399 1093.32 248.399C1150.16 248.399 1171.72 203.711 1171.72 144.127ZM1400.29 193.127C1400.29 236.247 1367.76 265.647 1316.8 265.647C1283.87 265.647 1263.09 255.455 1255.64 251.143C1250.94 242.519 1245.84 214.687 1245.06 196.263C1247.02 193.519 1252.9 192.735 1254.47 195.087C1260.35 215.079 1276.42 253.495 1321.89 253.495C1354.82 253.495 1370.89 231.935 1370.89 208.415C1370.89 191.167 1367.36 171.959 1338.75 153.535L1301.51 129.231C1281.91 116.295 1259.17 93.9512 1259.17 61.8072C1259.17 24.5672 1288.18 -5.61678 1339.14 -5.61678C1351.29 -5.61678 1365.4 -3.26476 1375.6 -0.520774C1380.69 1.04723 1386.18 1.83124 1389.32 1.83124C1392.84 11.2392 1396.37 33.1912 1396.37 49.6552C1394.8 52.0072 1388.53 53.1832 1386.57 50.8312C1381.48 32.0152 1370.89 6.53523 1333.26 6.53523C1294.84 6.53523 1286.61 32.0152 1286.61 50.0472C1286.61 72.7832 1305.43 89.2472 1319.93 98.2632L1351.29 117.863C1375.99 133.151 1400.29 155.887 1400.29 193.127Z" fill="currentColor"/>
</svg>
