<svg xmlns="http://www.w3.org/2000/svg" width="100%" viewBox="0 0 134 78" fill="none">
<path d="M3.71633 59.5453C3.71633 57.0528 3.56647 56.44 1.8907 56.2629L0.705404 56.1676C0.405673 55.9633 0.446545 55.4593 0.746276 55.3232C2.74902 55.1597 5.28311 55.0508 8.74363 55.0508C11.087 55.0508 13.3213 55.2142 14.9835 55.9905C16.5775 56.6987 17.8037 58.0471 17.8037 60.2126C17.8037 62.6505 16.2369 63.8899 14.0162 64.8433C14.0162 65.1838 14.3159 65.2791 14.7246 65.3472C16.7274 65.6877 19.711 67.3766 19.711 70.9858C19.711 74.9082 16.5094 77.5368 9.81994 77.5368C8.74363 77.5368 6.918 77.4415 5.36485 77.4415C3.8117 77.4415 2.46291 77.5096 1.08688 77.5368C0.868893 77.4415 0.787148 76.8967 1.01876 76.6924L1.68634 76.5971C3.66184 76.3247 3.72996 75.9161 3.72996 72.375V59.5453H3.71633ZM6.76814 64.0397C6.76814 64.9795 6.80901 65.0476 8.70276 64.9795C12.4903 64.8433 14.5339 63.8355 14.5339 60.6621C14.5339 57.4887 11.8227 56.0995 8.98887 56.0995C8.17142 56.0995 7.61283 56.1676 7.28585 56.3038C6.918 56.4127 6.76814 56.5762 6.76814 57.189V64.0397ZM6.76814 71.8711C6.76814 73.0832 6.83626 74.8129 7.54471 75.5484C8.25316 76.3247 9.37034 76.4881 10.4875 76.4881C13.7982 76.4881 16.3186 75.1398 16.3186 71.7621C16.3186 69.0927 14.8336 65.9874 8.92075 65.9874C6.918 65.9874 6.76814 66.1917 6.76814 66.859V71.8711Z" fill="currentColor"/>
<path d="M25.6648 60.2262C25.6648 56.7124 25.5967 56.2084 23.4032 55.9769L22.8037 55.9088C22.5857 55.7726 22.6539 55.1597 22.8718 55.0644C24.4659 55.1325 25.7329 55.1597 27.2588 55.1597H34.248C36.6322 55.1597 38.8257 55.1597 39.2617 55.0644C39.4796 55.6364 39.7113 58.0743 39.8611 59.5589C39.7113 59.7632 39.1118 59.8313 38.9347 59.627C38.3761 58.0335 38.0355 56.8622 36.1145 56.4127C35.3379 56.2493 34.139 56.2084 32.5041 56.2084H29.8338C28.7166 56.2084 28.7166 56.2765 28.7166 57.5568V64.3121C28.7166 65.2519 28.8256 65.2519 29.9428 65.2519H32.0954C33.6621 65.2519 34.8066 65.1838 35.2562 65.0476C35.7058 64.9114 35.9646 64.7071 36.1417 63.8627L36.4415 62.4735C36.6322 62.2692 37.2589 62.2692 37.4088 62.5007C37.4088 63.3179 37.2589 64.6254 37.2589 65.9056C37.2589 67.1178 37.4088 68.398 37.4088 69.1471C37.2589 69.3787 36.6322 69.3787 36.4415 69.188L36.1009 67.8669C35.951 67.254 35.6921 66.7501 34.9428 66.5866C34.4251 66.4504 33.5259 66.4232 32.0817 66.4232H29.9291C28.812 66.4232 28.703 66.4504 28.703 67.3357V72.1026C28.703 73.8868 28.812 75.0444 29.4114 75.6165C29.861 76.0251 30.6376 76.3928 33.9074 76.3928C36.7684 76.3928 37.8447 76.2566 38.6622 75.8889C39.3298 75.5484 40.338 74.3635 41.3053 72.6065C41.5641 72.4431 42.0818 72.5384 42.2317 72.8381C41.9729 74.023 41.0464 76.6243 40.5559 77.5368C37.2044 77.4688 33.9074 77.4415 30.5967 77.4415H27.2452C25.6512 77.4415 24.3841 77.4688 22.1906 77.5368C21.9727 77.4415 21.8909 76.8967 22.1225 76.6924L23.3487 76.5971C25.474 76.4337 25.6512 75.9161 25.6512 72.375V60.2126L25.6648 60.2262Z" fill="currentColor"/>
<path d="M59.0026 69.6103C58.7438 68.8748 58.5939 68.7659 57.4767 68.7659H51.8636C50.9372 68.7659 50.7056 68.8612 50.4467 69.5694L49.1388 73.1105C48.5802 74.6359 48.3213 75.5485 48.3213 75.9162C48.3213 76.3248 48.5121 76.5291 49.3976 76.5972L50.6238 76.6925C50.8827 76.8559 50.8827 77.4007 50.5557 77.5369C49.5884 77.4688 48.4303 77.4688 46.6864 77.4416C45.4603 77.4416 44.1251 77.5097 43.1169 77.5369C42.8989 77.4007 42.8172 76.8559 43.0488 76.6925L44.275 76.5972C45.1742 76.5291 45.978 76.1613 46.5093 74.9492C47.1769 73.3965 48.2123 71.2038 49.7791 67.4175L53.5666 58.3059C54.0843 57.0938 54.3023 56.4537 54.1933 55.9089C55.0789 55.6773 55.7192 55.0645 56.128 54.6286C56.3459 54.6286 56.6184 54.6967 56.6865 54.9283C57.177 56.4128 57.7628 57.9654 58.3214 59.45L63.4169 73.0288C64.4932 75.9298 64.9836 76.4337 66.5777 76.6108L67.5858 76.7061C67.8447 76.8696 67.7766 77.4144 67.5858 77.5505C66.0599 77.4824 64.7656 77.4552 63.0899 77.4552C61.3051 77.4552 59.8882 77.5233 58.8119 77.5505C58.5122 77.4144 58.4713 76.8696 58.7438 76.7061L59.8201 76.6108C60.5967 76.5427 61.128 76.3384 61.128 75.9979C61.128 75.6302 60.9373 75.0173 60.6512 74.2137L59.0163 69.6239L59.0026 69.6103ZM51.6456 66.6139C51.3459 67.3903 51.3868 67.4175 52.4222 67.4175H56.9999C58.0762 67.4175 58.1579 67.2813 57.8173 66.3688L55.8146 60.8664C55.5149 60.0629 55.1879 59.1504 54.9563 58.7418H54.8882C54.7792 58.9052 54.4113 59.7224 54.0026 60.7302L51.6592 66.6003L51.6456 66.6139Z" fill="currentColor"/>
<path d="M78.8261 72.3886C78.8261 75.9297 78.8942 76.4064 81.0604 76.6107L82.2457 76.7061C82.4637 76.8422 82.3956 77.4551 82.1776 77.5505C80.0659 77.4824 78.7988 77.4551 77.3138 77.4551C75.8288 77.4551 74.5209 77.4824 72.1503 77.5505C71.9323 77.4551 71.8505 76.8695 72.1503 76.7061L73.4854 76.6107C75.5972 76.4473 75.7879 75.9297 75.7879 72.3886V57.298C75.7879 56.2493 75.7879 56.222 74.6707 56.222H72.6271C71.0331 56.222 68.9895 56.2901 68.0494 57.0665C67.1638 57.8156 66.7824 58.551 66.3736 59.3954C66.0739 59.5997 65.5562 59.4227 65.4063 59.1639C66.0058 57.6385 66.5644 55.4866 66.8232 54.1382C66.9322 54.0701 67.4227 54.0429 67.5317 54.1382C67.7497 55.2142 68.9759 55.187 70.6925 55.187H85.7471C87.7499 55.187 88.0905 55.1189 88.6491 54.2472C88.8398 54.1791 89.2485 54.22 89.3167 54.3425C88.9079 55.7317 88.6491 58.4693 88.7581 59.4771C88.6082 59.7495 87.9815 59.7495 87.7908 59.5453C87.6818 58.7008 87.4229 57.4478 86.8643 57.0801C86.006 56.5081 84.5891 56.2357 82.5455 56.2357H79.9024C78.7852 56.2357 78.8261 56.2765 78.8261 57.3797V72.4022V72.3886Z" fill="currentColor"/>
<path d="M112.042 63.6312C112.042 61.5337 111.974 57.6521 111.333 56.6443C111.074 56.2357 110.407 56.0041 109.48 55.936L108.554 55.8679C108.336 55.6364 108.404 55.187 108.622 55.0644C110.039 55.1325 111.415 55.1597 112.859 55.1597C114.426 55.1597 115.42 55.1325 116.756 55.0644C117.055 55.2278 117.014 55.6773 116.824 55.8679L115.938 55.936C115.012 56.0041 114.262 56.3038 114.085 56.7532C113.527 57.87 113.568 61.7516 113.568 63.6448V67.4583C113.568 70.4001 113.05 73.5054 110.965 75.5348C109.371 77.1283 106.619 77.9999 103.867 77.9999C101.306 77.9999 98.7445 77.5641 96.9189 76.1476C94.9434 74.6631 94.017 72.1979 94.017 68.1801V60.2126C94.017 56.6987 93.9489 56.1267 91.7826 55.9633L90.8562 55.8952C90.6382 55.759 90.7063 55.187 90.9243 55.0916C92.7772 55.1597 94.0442 55.187 95.5293 55.187C97.0143 55.187 98.2813 55.1597 100.107 55.0916C100.325 55.187 100.407 55.7726 100.175 55.8952L99.2895 55.9633C97.1369 56.1267 97.0552 56.7124 97.0552 60.2126V67.5128C97.0552 72.947 98.908 76.529 104.603 76.529C109.998 76.529 112.042 72.6746 112.042 67.54V63.6312Z" fill="currentColor"/>
<path d="M125.598 77.9864C122.478 77.9864 120.503 77.1147 119.794 76.7334C119.345 75.9843 118.868 73.5872 118.786 72.0073C118.977 71.7758 119.535 71.7077 119.685 71.912C120.244 73.6281 121.77 76.9377 126.075 76.9377C129.195 76.9377 130.721 75.0854 130.721 73.0561C130.721 71.5715 130.38 69.9099 127.669 68.33L124.14 66.2326C122.287 65.1158 120.121 63.1954 120.121 60.4306C120.121 57.2164 122.873 54.6286 127.71 54.6286C128.868 54.6286 130.203 54.7921 131.17 55.0645C131.647 55.1598 132.178 55.2687 132.465 55.2687C132.805 56.0859 133.132 57.9654 133.132 59.3955C132.982 59.5998 132.396 59.6951 132.206 59.4908C131.729 57.8701 130.721 55.6773 127.151 55.6773C123.582 55.6773 122.723 57.8701 122.723 59.4228C122.723 61.384 124.508 62.7732 125.884 63.5768L128.854 65.2656C131.198 66.5867 133.5 68.5479 133.5 71.7486C133.5 75.4667 130.421 78 125.584 78L125.598 77.9864Z" fill="currentColor"/>
<path d="M73.9074 26.7628H67.9536L67.8991 17.2154H73.8529V18.6318L69.2888 18.6046L69.3433 25.3736H73.9074C77.5178 25.2646 77.3815 22.0776 77.3815 22.0776C77.2044 18.5637 73.8529 18.6454 73.8529 18.6454V17.2562C73.8529 17.2562 78.7848 17.3379 78.7848 22.2274C78.7439 22.9765 78.4306 26.7628 73.921 26.79" fill="currentColor"/>
<path d="M67.9536 16.2483L67.8991 7.0142H72.2316V8.43065H69.2888L69.2752 14.8591C70.9101 14.8591 71.8637 14.8591 71.9864 14.8591V16.2483H67.9536ZM76.7548 11.8492C76.7276 12.6119 76.3052 16.2483 71.9182 16.2483V14.8591C75.5695 14.7638 75.3515 11.713 75.3515 11.713C75.188 8.19912 72.2043 8.43065 72.2043 8.43065V7.04144C72.2043 7.04144 76.7412 6.95972 76.7412 11.8492H76.7548Z" fill="currentColor"/>
<path d="M55.3384 27.7978L58.2948 18.659H65.5156V25.3871H58.7444V27.825H55.3384V27.7978ZM58.7308 29.1189H65.5701V37.8899C60.9243 37.1545 59.0714 32.8507 58.7308 29.1189H57.3548C57.382 33.3955 60.6246 39.1838 66.878 39.2792V27.7978H60.0524V26.7899L66.9053 26.7627V17.2561L57.3412 17.2834L53.9351 27.7978H52.9269L60.0251 5.8837H60.8834L57.709 16.2347H66.9325V3.90885L64.8617 1.74332L67.8999 1.77056V6.10162H72.3004C72.3004 6.10162 77.5593 5.99266 77.6275 11.8627C77.6275 11.8627 77.8182 14.9544 75.1206 16.5343C75.1206 16.5343 79.7528 17.6511 79.7528 22.2137C79.7528 26.2587 76.4286 27.5254 75.6656 27.7705H67.8999V39.2655C74.2351 39.1702 77.3277 33.6542 77.4367 29.2278H76.0607C75.7065 32.946 73.8536 37.2226 69.2214 37.9581V29.2142H81.5648V30.3174C81.5648 30.3174 80.2024 30.3174 79.6575 30.3174H78.2542C77.9272 33.2729 76.2242 39.6197 67.423 40.2053V41.6762C76.2514 40.9408 78.7583 35.2477 79.4531 31.693H83.0362V27.7569H78.5948C79.0035 27.5118 81.1425 26.0136 81.1425 22.1865C81.1425 17.9507 77.5457 16.0985 77.5457 16.0985C79.1534 14.1917 79.0171 11.8491 79.0171 11.8491C78.9763 6.26505 74.7119 4.69879 72.2868 4.69879C72.2868 4.69879 70.6247 4.69879 69.344 4.69879V0H61.115L65.5429 4.44002V14.8591H59.5483L62.5592 4.50811H59.0714L51.0877 29.1189H55.1204C55.1204 30.8622 55.6109 40.7092 67.423 41.7035V40.2325C56.9869 39.5243 56.5101 30.7669 56.5237 29.1189H57.3684" fill="currentColor"/>
</svg>